<svg width="190" height="255" viewBox="0 0 190 255" fill="none" xmlns="http://www.w3.org/2000/svg">
<g clip-path="url(#clip0_10_343)">
<path fill-rule="evenodd" clip-rule="evenodd" d="M165.2 208.7L164.5 208L165.2 207.2L165.9 208L165.2 208.7ZM166.7 208.7L166 208L166.7 207.2L167.3 208L166.7 208.7ZM27.5 208.4L26.8 207.6L27.5 206.8L28.2 207.6L27.5 208.4ZM28.9 208.4L28.2 207.6L28.9 206.8L29.6 207.6L28.9 208.4ZM37.2 208.4L36.6 207.7L37.2 207L37.8 207.7L37.2 208.4ZM43.4 208.1H43.1V207.1H43.5C43.8 207.1 44 207.1 44.3 207C44.9 206.7 45.3 206.2 45.3 205.2V201.5H46V203.4C46.1 203.4 46.3 203.7 46.3 203.7L46.6 203.9L47.1 204.1H54.8C55.1 204.1 55.4 204 55.5 203.9H55.6V203.7C55.4 203.5 55.1 203.3 54.8 203.1L54 202.3V200.7L54.2 200.6L54.5 200.4C54.6 200.4 54.8 200.3 54.9 200.3C55.3 200.2 55.8 200.1 56.2 200.1H57.3C57.3 200.2 57.7 200.5 57.7 200.5C57.8 200.5 57.9 200.7 58 200.8C58.3 201.1 58.4 201.5 58.4 201.9V202.3C58.4 202.9 57.9 203.4 57.3 203.9H57.2C57.2 204 57.3 204 57.3 204C57.6 204.1 57.9 204.2 58.2 204.2H63.5C64.5 204.2 64.9 203.6 64.9 202.6V197.7H65.6V202.8C65.6 203.3 65.6 203.6 65.5 204C65.2 204.9 64.7 205.3 63.5 205.4H59.1C58.1 205.4 57.3 205.4 56.3 204.7C56 204.9 55.5 205.1 54.9 205.2C54.4 205.3 53.8 205.4 53.3 205.4H47.5C46.7 205.4 46.2 205.1 46 204.9L45.8 204.6V205.6C45.7 207.4 44.9 208.3 43.5 208.3C42.1 208.3 43.3 208.3 43.2 208.3L43.4 208.1ZM129.4 207.4C128.9 207.1 128.6 206.7 128.4 206.3C128.2 205.8 128.1 205.3 128.1 204.8V203.8L128.3 202.9H128.8V203.7C128.7 204 128.6 204.2 128.6 204.5V204.9C128.6 205.5 128.9 206 129.2 206.3C129.6 206.6 130.2 206.8 130.9 206.8C131.6 206.8 132.1 206.8 132.4 206.5C132.8 206.3 133 206.1 133.2 205.7C133.4 205.4 133.5 205.1 133.5 204.8V201.6H134V202.5C134 202.7 134 203 134.1 203.2C134.1 203.5 134.4 203.7 134.6 203.9C134.8 204.1 135.2 204.2 135.8 204.2H136.3C136.6 204.2 136.8 204.1 137.1 203.9C137.2 203.7 137.4 203.5 137.4 203.3V201.7H137.9V203.3L138.1 203.6C138.1 203.7 138.1 203.8 138.2 203.8C138.5 204.1 138.8 204.3 139.2 204.3C139.6 204.3 139.8 204.2 140.1 203.9C140.3 203.7 140.4 203.4 140.5 203V201.3H141V203.1C141 204.7 140.3 205.4 139.1 205.4C137.9 205.4 137.8 205.1 137.6 204.5C137.4 204.8 137.1 205.1 136.8 205.3C136.5 205.4 136.2 205.5 135.8 205.5C135 205.5 134.5 205.3 134.3 205V204.8C134.2 204.8 134.1 205 134.1 205C133.9 207 132.8 208 130.9 208C129 208 129.6 207.9 129.1 207.6L129.4 207.4ZM185.7 204.4C185.3 205 184.7 205.2 184.1 205.3H174.7C173.9 205.3 173.3 205.2 172.7 204.9C172.7 204.9 171.9 205.3 170.7 205.3H168.5C167.6 205.3 166.8 204.6 166.6 204V203.7L166.4 204C166.2 204.7 165.6 205.3 164.8 205.3H146.3C144.4 205.3 144.1 204.3 144.1 202.8V197.6H144.8V202.3C144.8 203.5 145.1 204.2 146.5 204.2H164.8C165.2 204.2 165.5 204.1 165.9 203.9C166.3 203.6 166.4 203.2 166.4 202.7V201.5H167V202.7C167 203.6 167.6 204.3 168.5 204.3H171.4C171.1 203.7 171 203 171 202.4C171 201.7 171.3 201 171.8 200.6C172 200.4 172.4 200.1 172.9 200.1C173.4 200.1 174 200.4 174.2 200.9C174.4 201.3 174.6 201.8 174.6 202.3C174.6 203.1 174.4 203.6 174.1 204.1H174C174 204.2 184.2 204.2 184.2 204.2H184.4C185.3 204.1 185.6 203.5 186 202.8C186.8 201.4 187.3 200.8 188 200.8C188.7 200.8 190 202.1 190 203.4C190 204.7 189.8 204.5 189.5 204.9C189.2 205.2 188.7 205.4 188 205.4C187 205.4 186.4 205 185.8 204.4H185.7ZM68 197.7H68.7V205.3H68V197.7ZM120.7 197.7H121.4V205.3H120.7V197.7ZM26.6 205.2H5.2C4.3 205 3.7 204.2 3.6 203.7C3.6 203.6 3.5 203.7 3.5 203.7C2.9 204.2 2.5 204.5 1.6 204.5C0.7 204.5 0 203.9 0 202.9C0 201.9 0.1 202 0.3 201.7C1 200.7 2 200.1 3.4 199.9V199.5H4.1V202.6C4.1 203.7 4.5 204.4 6 204.4H26.4C26.8 204.4 27.1 204.4 27.5 204.1C27.9 203.8 28 203.4 28 202.9V201.7H28.6V202.9C28.6 203.8 29.3 204.5 30.2 204.5H39.2C40.2 204.5 41 204.2 41 203.1V201.1H41.6V201.8C41.7 202.5 41.7 203 41.7 203.2C41.7 205.4 40.2 205.6 39.5 205.6H30.3C29.4 205.6 28.6 204.9 28.4 204.3V204L28.2 204.3C28 205 27.4 205.6 26.6 205.6V205.2ZM79.2 205.2C78.3 205 77.7 204.2 77.6 203.7C77.6 203.6 77.5 203.7 77.5 203.7C76.9 204.2 76.5 204.4 75.6 204.4C74.7 204.4 74 203.8 74 202.8C74 201.8 74.1 201.9 74.4 201.6C75.1 200.5 76.1 200 77.5 199.8V199.4H78.2V202.5C78.2 203.6 78.6 204.3 80.1 204.3H99.8C100.1 204.3 100.4 204.2 100.6 204.1H100.7L100.6 203.9C100.4 203.7 100.1 203.5 99.9 203.3L99.1 202.5V200.9L99.3 200.8L99.6 200.6C99.7 200.6 99.9 200.5 100.1 200.5C100.5 200.4 101 200.3 101.4 200.3H102.5C102.5 200.4 102.9 200.7 102.9 200.7C103 200.7 103.1 200.9 103.2 201C103.5 201.3 103.6 201.7 103.6 202.1V202.5C103.5 203.1 103.1 203.6 102.5 204.1H102.4C102.4 204.2 102.6 204.2 102.6 204.2C102.9 204.3 103.2 204.4 103.5 204.4H111.7C112.9 204.4 113.2 203.6 113.2 202.8V197.9H113.9V203.4L114.2 203.8C114.5 204.2 115 204.3 115.5 204.3C116.6 204.3 117 203.7 117 202.7V197.8H117.7V202.9C117.7 203.4 117.7 203.7 117.6 204.1C117.3 205 116.8 205.5 115.6 205.5C114.5 205.5 113.9 204.8 113.7 204.1V203.9L113.5 204.1C113.3 204.6 113 205 112.6 205.3C112.4 205.4 112.1 205.5 111.8 205.5H104.6C103.6 205.5 102.8 205.5 101.8 204.8C101.5 205 101 205.2 100.4 205.3C99.9 205.4 99.3 205.5 98.8 205.5H79.5L79.2 205.2ZM189.4 203.4C189.4 202.6 188.7 201.8 187.9 201.8C187.1 201.8 186.6 202.4 186 203.7V203.8C186.6 204.3 187 204.4 187.9 204.4C188.8 204.4 189.4 204.1 189.4 203.4ZM172.6 203.8C173.3 203.7 174.1 203.1 174.1 202.4C174.1 201.7 173.3 201.1 172.6 201.1C171.9 201.1 171 201.7 171 202.4C171 203.1 171.7 203.6 172.5 203.8H172.6ZM56.4 203.5C56.9 203.3 57.9 202.7 58 201.9C58 201.7 57.8 200.9 56.3 200.9C55.4 200.9 54.7 201.2 54.3 201.5V201.6C54.9 202.3 55.6 202.8 56.3 203.3L56.4 203.5ZM101.6 203.5C102.1 203.3 103.1 202.7 103.2 201.9C103.2 201.7 103 200.9 101.5 200.9C100.6 200.9 99.9 201.2 99.5 201.5V201.6C100.1 202.3 100.8 202.8 101.5 203.3L101.6 203.5ZM77.6 202.9V200.8C77.3 200.8 74.7 200.8 74.7 202.5C74.7 204.2 75.4 203.4 76.1 203.4C76.8 203.4 77.2 203.3 77.7 203L77.6 202.9ZM3.5 202.9V200.8H3.4C3.1 200.8 0.5 200.8 0.5 202.5C0.5 204.2 1.1 203.4 1.9 203.4C2.7 203.4 3 203.3 3.5 203V202.9ZM171.8 198.8L171.1 198.1L171.8 197.3L172.5 198.1L171.8 198.8ZM173.2 198.8L172.5 198.1L173.2 197.3L173.9 198.1L173.2 198.8ZM101.1 198.5L100.5 197.8L101.1 197.1L101.8 197.8L101.1 198.5ZM2.3 198L1.6 197.2L2.3 196.4L3 197.2L2.3 198ZM3.7 198L3 197.2L3.7 196.4L4.4 197.2L3.7 198ZM76.4 198L75.7 197.2L76.4 196.4L77.1 197.2L76.4 198ZM77.8 198L77.1 197.2L77.8 196.4L78.5 197.2L77.8 198Z" fill="white"/>
<path fill-rule="evenodd" clip-rule="evenodd" d="M46.5 220.9C46.5 220.4 47 219.9 47.7 219.6C47.1 219.6 46.8 219.3 46.8 218.8C46.8 218.3 47.1 218 47.6 217.7C47 217.4 46.7 216.9 46.7 216.2C46.7 215.1 47.5 214.3 48.8 214.3C50.1 214.3 49.7 214.3 50 214.4H51.7V215.1H50.8C50.9 215.4 51 215.7 51 216.1C51 217.1 50.2 217.9 48.9 217.9C47.6 217.9 48.3 217.9 48.1 217.9C47.9 218.1 47.8 218.3 47.8 218.5C47.8 218.7 48 219 48.6 219H49.7C50.9 219 51.4 219.4 51.4 220.1C51.4 220.8 50.4 222 48.5 222C46.6 222 46.6 221.7 46.6 221L46.5 220.9ZM63 220.9C63 220.4 63.5 219.9 64.2 219.6C63.5 219.6 63.2 219.3 63.2 218.8C63.2 218.3 63.4 218 64 217.7C63.3 217.4 63.1 216.9 63.1 216.2C63.1 215.1 63.9 214.3 65.2 214.3C66.5 214.3 66.1 214.3 66.4 214.4H68.1V215.1H67.2C67.3 215.4 67.4 215.7 67.4 216.1C67.4 217.1 66.6 217.9 65.4 217.9C64.2 217.9 64.8 217.9 64.6 217.9C64.4 218.1 64.2 218.3 64.2 218.5C64.2 218.7 64.4 219 65 219H66.1C67.3 219 67.8 219.4 67.8 220.1C67.8 220.8 66.8 222 64.9 222C63 222 63 221.7 63 221V220.9ZM50.1 221C50.3 220.8 50.4 220.5 50.4 220.3C50.4 219.8 49.8 219.6 49.4 219.6H48.5C47.9 219.8 47.5 220.2 47.5 220.7C47.5 221.2 48 221.3 48.6 221.3C49.2 221.3 49.7 221.3 50.1 221.1V221ZM66.5 221C66.7 220.8 66.8 220.5 66.8 220.3C66.8 219.8 66.2 219.6 65.8 219.6H64.9C64.3 219.8 63.9 220.2 63.9 220.7C63.9 221.2 64.4 221.3 65 221.3C65.6 221.3 66.1 221.3 66.5 221.1V221ZM10 218.4C10 217.1 10.6 216.6 11.9 216.6H13.2V215.6C13.2 215.4 13.2 215.2 13.1 215.1H12.3C11.5 215.1 11.3 215.3 11.1 216L10.4 215.7C10.6 214.6 11.1 214.3 12.2 214.3C13.3 214.3 14.1 214.8 14.1 215.5V219.6H13.3V218.3C12.8 219.1 12 219.8 11.2 219.8C10.4 219.8 10 219.2 10 218.4ZM35.7 218.4C35.7 217.1 36.3 216.6 37.6 216.6H38.9V215.6C38.9 215.4 38.9 215.2 38.8 215.1H38C37.2 215.1 37 215.3 36.9 216L36.2 215.7C36.4 214.6 36.9 214.3 38 214.3C39.1 214.3 39.9 214.8 39.9 215.5V219.6H39.1V218.3C38.6 219.1 37.8 219.8 37 219.8C36.2 219.8 35.7 219.2 35.7 218.4ZM57.9 218.4C57.9 217.1 58.5 216.6 59.7 216.6H61V215.5C61 215.3 61 215.1 60.9 215H60.1C59.3 215 59.1 215.2 59 215.9L58.3 215.6C58.5 214.5 59 214.2 60.1 214.2C61.2 214.2 62 214.7 62 215.4V219.5H61.2V218.2C60.7 219 59.9 219.7 59.1 219.7C58.3 219.7 57.9 219.1 57.9 218.3V218.4ZM68.6 217C68.6 215.4 69.5 214.3 70.9 214.3C72.3 214.3 72.9 214.9 72.9 216.4C72.9 217.9 72.9 216.8 72.9 217.1H69.5C69.5 218.6 69.9 219.1 70.8 219.1H71.8C72 219 72.1 218.6 72.3 218.3L73 218.7C72.8 219.5 71.9 219.9 71 219.9C69.1 219.9 68.7 218.9 68.7 217.1L68.6 217ZM84.9 217C84.9 215.4 85.8 214.3 87.2 214.3C88.6 214.3 89.2 214.9 89.2 216.4C89.2 217.9 89.2 216.8 89.2 217.1H85.8C85.8 218.6 86.2 219.1 87.1 219.1H88.1C88.3 219 88.4 218.6 88.6 218.3L89.3 218.7C89.1 219.5 88.2 219.9 87.3 219.9C85.4 219.9 85 218.9 85 217.1L84.9 217ZM90.1 218.4C90.1 217.1 90.7 216.6 92 216.6H93.3V215.6C93.3 215.4 93.3 215.2 93.2 215.1H92.4C91.6 215.1 91.4 215.3 91.2 216L90.5 215.7C90.7 214.6 91.2 214.3 92.3 214.3C93.4 214.3 94.2 214.8 94.2 215.5V219.6H93.5V218.3C93 219.1 92.2 219.8 91.4 219.8C90.6 219.8 90.2 219.2 90.2 218.4H90.1ZM95.3 218.5L96.1 218.2C96.2 218.9 96.6 219.1 97.3 219.1H98.3C98.4 219 98.5 218.6 98.5 218.4C98.5 217.8 98.1 217.7 97.7 217.6L96.8 217.4C96.2 217.2 95.5 216.9 95.5 215.9C95.5 214.9 96.3 214.4 97.5 214.4C98.7 214.4 99.1 214.7 99.3 215.6L98.6 215.9C98.5 215.3 98.1 215.1 97.5 215.1H96.7C96.5 215.2 96.5 215.5 96.5 215.7C96.5 216.2 96.8 216.4 97.1 216.5L98 216.7C98.8 216.9 99.4 217.1 99.4 218.2C99.4 219.3 98.6 219.8 97.4 219.8C96.2 219.8 95.6 219.4 95.4 218.5H95.3ZM109.3 217C109.3 215.4 110.2 214.3 111.6 214.3C113 214.3 113.6 214.9 113.6 216.4C113.6 217.9 113.6 216.8 113.6 217.1H110.2C110.2 218.6 110.6 219.1 111.5 219.1H112.5C112.7 219 112.8 218.6 113 218.3L113.7 218.7C113.5 219.5 112.6 219.9 111.7 219.9C109.8 219.9 109.4 218.9 109.4 217.1L109.3 217ZM123.5 217C123.5 215.4 124.4 214.3 125.8 214.3C127.2 214.3 127.8 214.9 127.8 216.4C127.8 217.9 127.8 216.8 127.8 217.1H124.4C124.4 218.6 124.8 219.1 125.7 219.1H126.7C126.9 219 127.1 218.6 127.2 218.3L127.9 218.7C127.6 219.5 126.8 219.9 125.9 219.9C124 219.9 123.6 218.9 123.6 217.1L123.5 217ZM149.3 218.4C149.3 217.1 149.9 216.6 151.2 216.6H152.5V215.6C152.5 215.4 152.5 215.2 152.4 215.1H151.6C150.8 215.1 150.6 215.3 150.4 216L149.7 215.7C149.9 214.6 150.4 214.3 151.5 214.3C152.6 214.3 153.4 214.8 153.4 215.5V219.6H152.7V218.3C152.2 219.1 151.4 219.8 150.6 219.8C149.8 219.8 149.3 219.2 149.3 218.4ZM163.5 217C163.5 215.4 164.4 214.3 165.8 214.3C167.2 214.3 167.8 214.9 167.8 216.4C167.8 217.9 167.8 216.8 167.8 217.1H164.4C164.4 218.6 164.8 219.1 165.7 219.1H166.7C166.9 219 167 218.6 167.2 218.3L167.9 218.7C167.7 219.5 166.9 219.9 165.9 219.9C164 219.9 163.5 218.9 163.5 217.1V217ZM176.4 217.1C176.4 215.4 177.3 214.3 178.6 214.3C179.9 214.3 180.9 215.3 180.9 217C180.9 218.7 180 219.8 178.7 219.8C177.4 219.8 176.4 218.8 176.4 217.1ZM23.4 217.1C23.4 215.4 24.3 214.3 25.7 214.3C27.1 214.3 27.4 214.7 27.6 215.7L26.9 216C26.7 215.2 26.4 215 25.8 215H25.1C24.6 215.2 24.5 215.9 24.5 216.9C24.5 218.5 24.9 219 25.8 219C26.7 219 26.2 219 26.4 219C26.7 218.9 26.9 218.6 27 218.1L27.7 218.3C27.5 219.1 26.7 219.7 25.8 219.7C24.1 219.7 23.6 218.7 23.6 217L23.4 217.1ZM16.3 219.1L15.5 219.3V212.1H16.4V215.7C16.8 214.9 17.6 214.3 18.4 214.3C19.6 214.3 20 215.4 20 216.9C20 218.4 19.4 219.8 17.9 219.8C16.4 219.8 16.9 219.6 16.3 219.2V219.1ZM135.2 217.6V215.1H134.1V214.6H135.2C135.2 214.5 135.4 212.9 135.4 212.9H136V214.4H137.6V215.1H136V217.6C136 218.2 136 218.7 136.1 218.9C136.3 219 136.5 219 136.7 219C136.9 219 137.3 218.9 137.5 218.7L137.8 219.3C137.6 219.6 137.2 219.7 136.6 219.7C135.4 219.7 135 219.1 135 217.5L135.2 217.6ZM52.5 218.3V214.4H53.4V218.1C53.4 218.4 53.4 218.9 54.2 218.9C55 218.9 54.9 218.8 55.3 218.6C55.7 218.3 55.9 217.3 55.9 216.1V214.4H56.8V219.6H56.1V218.2C55.5 219.1 54.6 219.7 53.8 219.7C53 219.7 52.6 219.1 52.6 218.2L52.5 218.3ZM100.5 218.3V214.4H101.4V218.1C101.4 218.4 101.4 218.9 102.1 218.9C102.8 218.9 102.8 218.8 103.2 218.6C103.6 218.3 103.8 217.3 103.8 216.1V214.4H104.7V219.6H103.9V218.2C103.3 219.1 102.4 219.7 101.6 219.7C100.8 219.7 100.4 219.1 100.4 218.2L100.5 218.3ZM0 219.6L2.5 212.6H3.5L6 219.6H5.1L4.4 217.7H1.7L1.1 219.6H0ZM31.3 219.6V212.6H32.2V218.8H35.1V219.6H31.3ZM76.6 219.6V212.6H78.2L79.7 216.6C79.8 217.1 80 217.6 80.1 218.1L81.9 212.7H83.4V219.7C83.5 219.7 82.6 219.7 82.6 219.7V213.4C82.5 213.4 80.5 219 80.5 219H79.6L77.5 213.4V219.7H76.5L76.6 219.6ZM141.5 219.6V212.6H145.3V213.4H142.4V216L145.1 215.8V216.6H142.4V219.6H141.5ZM41.3 219.6V214.4H42V215.8C42.6 214.9 43.5 214.3 44.3 214.3C45.1 214.3 45.5 214.9 45.5 215.8V219.6H44.6V215.9C44.6 215.5 44.6 215 43.9 215C43.2 215 43.2 215.1 42.8 215.3C42.4 215.6 42.2 216.6 42.2 217.8V219.5H41.3V219.6ZM114.9 219.6V214.4H115.6V215.8C116.2 214.9 117 214.3 117.8 214.3C118.6 214.3 119 214.9 119 215.7C119.5 214.9 120.3 214.3 121.1 214.3C121.9 214.3 122.3 214.9 122.3 215.8V219.6H121.4V215.9C121.4 215.5 121.4 215.1 120.6 215.1C119.8 215.1 120 215.2 119.6 215.4C119.2 215.7 119 216.7 119 217.9V219.6H118.1V215.9C118.1 215.5 118.1 215.1 117.4 215.1C116.7 215.1 116.8 215.2 116.4 215.4C116 215.7 115.8 216.7 115.8 217.9V219.6H114.9ZM129.1 219.6V214.4H129.8V215.8C130.4 214.9 131.3 214.3 132.1 214.3C132.9 214.3 133.3 214.9 133.3 215.8V219.6H132.4V215.9C132.4 215.5 132.4 215 131.7 215C131 215 131 215.1 130.6 215.3C130.2 215.6 130 216.6 130 217.8V219.5H129.1V219.6ZM154.9 219.6V214.4H155.6V215.8C156.2 214.9 157 214.3 157.8 214.3C158.6 214.3 159 214.9 159 215.7C159.5 214.9 160.3 214.3 161 214.3C161.7 214.3 162.2 214.9 162.2 215.8V219.6H161.3V215.9C161.3 215.5 161.3 215.1 160.6 215.1C159.9 215.1 160 215.2 159.6 215.4C159.2 215.7 159 216.7 159 217.9V219.6H158.1V215.9C158.1 215.5 158.1 215.1 157.4 215.1C156.7 215.1 156.8 215.2 156.4 215.4C156 215.7 155.8 216.7 155.8 217.9V219.6H154.9ZM185.8 219.6V212.1H186.7V216.4H187.3L188.8 214.4H189.8L188 216.8L190 219.6H188.9L187.9 218.2C187.6 217.8 187.5 217.6 187.4 217.2H186.6V219.6H185.7H185.8ZM6.9 219.6V214.4H7.6V215.8C8.1 215 8.9 214.4 9.6 214.3V215.1C9.2 215.1 8.7 215.3 8.4 215.5C8 215.8 7.8 216.7 7.8 217.9V219.6H6.9ZM21.3 214.4H22.2V219.6H21.3V214.4ZM106.2 219.6V214.4H106.9V215.8C107.4 215 108.2 214.4 108.9 214.3V215.1C108.5 215.1 108 215.3 107.7 215.5C107.3 215.8 107.1 216.7 107.1 217.9V219.6H106.2ZM146.3 219.6V214.4H147V215.8C147.5 215 148.3 214.4 149 214.3V215.1C148.6 215.1 148.1 215.3 147.8 215.5C147.4 215.8 147.2 216.7 147.2 217.9V219.6H146.3ZM169.9 219.6L168.5 214.4H169.4L170.1 217.1C170.2 217.6 170.3 218.2 170.3 218.8L171.5 214.4H172.6L173.4 217.1C173.5 217.5 173.6 218 173.6 219L174.7 214.4H175.6L174.2 219.6H173.2L172 215.1L170.7 219.6H169.8H169.9ZM182.2 219.6V214.4H182.9V215.8C183.4 215 184.2 214.4 184.9 214.3V215.1C184.4 215.1 184 215.3 183.7 215.5C183.3 215.8 183.1 216.7 183.1 217.9V219.6H182.2ZM179.6 219C180 218.7 180 218 180 217.1C180 215.4 179.6 215 178.7 215C177.8 215 177.8 215 177.7 215.1C177.3 215.3 177.2 216 177.2 217C177.2 218.7 177.6 219.1 178.5 219.1H179.5L179.6 219ZM18.8 219C19.1 218.7 19.1 217.9 19.1 217C19.1 215.7 18.8 215.1 18.1 215.1C17.4 215.1 17.4 215.2 17.1 215.4C16.7 215.7 16.5 216.7 16.5 217.9V218.5C17 218.9 17.4 219.1 17.9 219.1H18.8V219ZM12.5 218.7C12.8 218.5 12.9 218 13.1 217.3H11.2C11 217.4 10.9 217.7 10.9 218.1C10.9 218.5 10.9 218.9 11.6 218.9C12.3 218.9 12.2 218.7 12.5 218.6V218.7ZM38.2 218.7C38.4 218.5 38.6 218 38.8 217.3H36.9C36.7 217.4 36.6 217.7 36.6 218.1C36.6 218.5 36.6 218.9 37.3 218.9C38 218.9 37.9 218.7 38.2 218.6V218.7ZM60.4 218.7C60.6 218.5 60.8 218 61 217.3H59.1C58.9 217.4 58.8 217.7 58.8 218.1C58.8 218.5 58.8 218.9 59.5 218.9C60.2 218.9 60.1 218.7 60.4 218.6V218.7ZM92.6 218.7C92.8 218.5 93.1 218 93.1 217.3H91.3C91.1 217.4 91 217.7 91 218.1C91 218.5 91 218.9 91.7 218.9C92.4 218.9 92.3 218.7 92.7 218.6L92.6 218.7ZM151.9 218.7C152.1 218.5 152.4 218 152.4 217.3H150.5C150.3 217.4 150.2 217.7 150.2 218.1C150.2 218.5 150.2 218.9 150.9 218.9C151.6 218.9 151.5 218.7 151.9 218.6V218.7ZM49.6 217.2C49.9 216.8 50 216.7 50 216.2C50 215.2 49.7 215 48.8 215C47.9 215 48.1 215 48 215C47.8 215.3 47.6 215.5 47.6 216.1C47.6 216.9 47.9 217.2 48.8 217.2H49.7H49.6ZM66.1 217.2C66.4 216.8 66.5 216.7 66.5 216.2C66.5 215.2 66.2 215 65.3 215C64.4 215 64.6 215 64.5 215C64.2 215.3 64.1 215.5 64.1 216.1C64.1 216.9 64.4 217.2 65.3 217.2C66.2 217.2 66 217.2 66.2 217.2H66.1ZM1.8 217.2L4.1 217L3.7 215.8C3.4 215 3.2 214.4 3.1 213.5L1.8 217.2ZM69.5 216.6L72.1 216.4V216.2C72.1 215.3 71.7 215 70.9 215C70.1 215 70.1 215 69.9 215.1C69.6 215.3 69.5 215.9 69.4 216.7L69.5 216.6ZM85.8 216.6L88.4 216.4V216.2C88.4 215.3 88 215 87.2 215C86.4 215 86.4 215 86.2 215.1C85.8 215.3 85.8 215.9 85.7 216.7L85.8 216.6ZM110.2 216.6L112.8 216.4V216.2C112.8 215.3 112.4 215 111.6 215C110.8 215 110.8 215 110.6 215.1C110.2 215.3 110.2 215.9 110.2 216.7V216.6ZM124.4 216.6L127 216.4V216.2C127 215.3 126.6 215 125.8 215C125 215 125 215 124.8 215.1C124.4 215.3 124.3 215.9 124.3 216.7L124.4 216.6ZM164.4 216.6L167 216.4V216.2C167 215.3 166.6 215 165.8 215C165 215 165 215 164.9 215.1C164.5 215.3 164.4 215.9 164.4 216.7V216.6ZM21.7 213.7L21.1 213L21.7 212.3L22.3 213L21.7 213.7Z" fill="white"/>
<path fill-rule="evenodd" clip-rule="evenodd" d="M47.6 181.7L48 179.8C48.4 179.8 48.8 179.9 49.1 179.9C50 179.9 50.8 179.9 51.6 179.7C51.9 179.1 52.5 177.4 53.2 175.8H52.8L47.7 162.1H50.4L52.9 168.9C53.4 170.4 53.8 171.8 53.8 174.1L58.3 162.2H61L55.4 175.9C53.6 180.3 52 181.9 49.2 181.9C46.4 181.9 48.1 181.9 47.5 181.7H47.6ZM42 181.7V172.5C40.7 174.6 38.4 176.3 36.4 176.3C32.9 176.3 31.9 173.3 31.9 169.4C31.9 165.5 33.7 161.7 37.8 161.7C41.9 161.7 40.6 162.2 42 163.3L44.5 161.8V181.7H42ZM62.4 172.6C62.4 169 64.1 167.9 67.7 167.9H71.5V165C71.5 164.4 71.4 163.9 71.1 163.7C70.6 163.7 69.7 163.5 68.7 163.5C66.6 163.5 65.8 164 65.4 166L63.4 165.3C64 162.4 65.4 161.7 68.5 161.7C71.6 161.7 74 163 74 165V175.8H71.9L71.6 172.3C70.4 174.5 68.1 176.3 65.9 176.3C63.7 176.3 62.3 174.8 62.3 172.7L62.4 172.6ZM77.9 172.8L80.1 172.1C80.5 174 81.7 174.4 83.6 174.4C85.5 174.4 85.4 174.4 86.3 174.2C86.7 173.9 86.9 172.9 86.9 172.3C86.9 170.8 85.7 170.5 84.7 170.2L82.2 169.6C80.4 169.2 78.4 168.4 78.4 165.6C78.4 162.8 80.7 161.7 84.1 161.7C87.5 161.7 88.6 162.5 89.1 164.9L87 165.6C86.7 163.9 85.6 163.6 83.9 163.6C82.2 163.6 82 163.7 81.6 163.8C81 164.1 80.9 164.8 80.9 165.4C80.9 166.8 81.8 167.3 82.7 167.5L85.1 168.1C87.3 168.6 89.3 169.2 89.3 172.1C89.3 175 86.9 176.4 83.4 176.4C79.9 176.4 78.3 175.3 77.7 172.9L77.9 172.8ZM160.9 172.6C160.9 169 162.6 167.9 166.2 167.9H170V165C170 164.4 169.9 163.9 169.6 163.7C169.1 163.7 168.2 163.5 167.2 163.5C165 163.5 164.3 164 163.9 166L161.9 165.3C162.5 162.4 163.9 161.7 167 161.7C170.1 161.7 172.5 163 172.5 165V175.8H170.4L170.1 172.3C168.9 174.5 166.6 176.3 164.4 176.3C162.2 176.3 160.8 174.8 160.8 172.7L160.9 172.6ZM176.8 169.4C176.8 164.1 178.6 161.7 182.7 161.7C186.8 161.7 185.5 162.2 186.9 163.3V156.1H189.4V175.8H187.3L187 172.2C185.7 174.4 183.4 176.2 181.2 176.2C177.7 176.2 176.7 173.2 176.7 169.3L176.8 169.4ZM0 175.8L0.4 157.4H4.6L8.7 167.9C9.2 169.1 9.6 170.4 9.8 171.7L15 157.3H19.3L19.7 175.7H17.2L16.9 159.1L11.3 173.8H8.7L2.8 159L2.5 175.7H0V175.8ZM24.9 162.1H27.4V175.8H24.9V162.1ZM96 175.8L103.1 157.4H106L113.1 175.8H110.4L108.5 170.8H100.7L98.9 175.8H96ZM115.5 156.9H118V175.9H115.5V156.9ZM125.1 175.8V157.4H131.6C138.6 157.4 140.4 160.7 140.4 166.4C140.4 172.1 137.1 175.8 131.7 175.8H125.1ZM144.9 175.8V156.1H147.4V165.6C148.8 163.4 151.4 161.7 153.5 161.7C155.6 161.7 156.9 163.3 156.9 165.7V175.8H154.4V166.1C154.4 165.1 154.3 163.8 152.4 163.8C150.5 163.8 150.4 164.2 149.3 164.7C148.2 165.6 147.5 168.2 147.5 171.3V175.9H145L144.9 175.8ZM40.2 173.4C41.3 172.5 42 169.9 42 166.8V165.3C40.5 164.2 39.5 163.7 38 163.7C36.5 163.7 35.9 163.7 35.4 163.9C34.5 164.7 34.4 166.8 34.4 169.2C34.4 172.8 35.3 174.3 37.3 174.3C39.3 174.3 39.2 173.9 40.2 173.4ZM69.7 173.4C70.4 172.8 71 171.5 71.3 169.8H67.8C67.2 169.8 66.3 169.9 65.9 170C65.3 170.3 65.1 171.1 65.1 172.1C65.1 173.1 65.1 174.3 67.1 174.3C69.1 174.3 68.9 173.9 69.8 173.4H69.7ZM168.1 173.4C168.8 172.8 169.4 171.5 169.6 169.8H166C165.4 169.8 164.6 169.9 164.1 170C163.5 170.3 163.3 171.1 163.3 172.1C163.3 173.1 163.3 174.3 165.3 174.3C167.3 174.3 167.1 173.9 168 173.4H168.1ZM185.1 173.4C186.2 172.5 186.9 169.9 186.9 166.8V165.3C185.4 164.2 184.4 163.7 182.9 163.7C181.4 163.7 180.7 163.7 180.3 163.9C179.4 164.7 179.3 166.8 179.3 169.2C179.3 172.8 180.3 174.3 182.2 174.3C184.1 174.3 184.1 173.9 185.1 173.4ZM135.7 173.4C137.1 172.3 137.6 169.7 137.6 166.8C137.6 161.2 135.7 159.4 131.9 159.4H127.8V173.9H131.7C133.5 173.9 134.7 173.7 135.7 173.4ZM101.1 169.4L107.6 168.9L106.4 165.8C105.6 163.8 105 162.1 104.7 159.6L101.1 169.4ZM25.9 160.2L24 158.2L25.9 156.2L27.8 158.2L25.9 160.2ZM82.4 142C82.2 139.8 82.4 137.2 83.6 135.2L83.8 134.8L85 135.6L84.8 135.9C84 137.1 83.5 139.3 83.8 141.2L84 142L84.4 142.8C85.5 144.4 87.7 144.9 89.2 144.9H91.1C93.1 144.7 95.7 143.1 96.6 141.8C97 141.1 97.3 140.4 97.5 139.8C97 137.8 96.2 135.9 95.4 134V133.8C95.3 133.8 97.4 131.7 97.4 131.7L97.9 133.1C98.7 134.9 99.4 137.3 101 137.3C102.1 137.3 103.7 137 104.8 135.4C105.2 134.8 105.5 134.2 105.7 133.5H107C107 134.5 107 136.4 108.2 137.3C109.1 137.8 109.9 137.9 110.7 137.8C110.7 136.5 110.3 134.8 109.6 133.6L109.4 133.3L111.6 131.3L111.8 131.8C112.6 133.9 112.8 136.1 112.3 137.7C111.9 139.1 110.8 140.1 109.4 140.1H109.2C107.2 140 106 138.7 105.9 137.1V136.8L105.5 137.4C104.3 139.2 102.5 139.9 101.1 139.8C100.2 139.8 99.5 139.4 99 139V139.8C98.9 141.9 98 144 96.4 145.5C94.7 147 92.2 147.9 89.4 147.9C85.3 147.9 83 145.3 82.6 142H82.4ZM139.6 147.6L137.7 145.6L139.6 143.6L141.3 145.5L142.9 143.6L144.8 145.6L142.9 147.6L141.3 145.8L139.6 147.6ZM44.9 140.2H41.3C40 139.8 39.4 138.7 39.2 137.6V137.3L38.7 138.3C38 139.5 36.9 140.3 35.1 140.3H20.1C18.1 140.3 17.2 138.8 16.8 137.4C16.5 136.3 16.4 135.1 16.2 133.9C16.1 132.7 15.9 131.3 15.8 129.9L15.5 122.8L18.2 122V126.1C18.2 128 17.8 134.7 17.8 135.6C17.8 136.5 18.2 137.2 19 137.4C19.3 137.4 19.6 137.5 20 137.6H35.1C35.7 137.6 36.1 137.6 36.5 137.4L36.9 137.2L37.7 136.5C37.9 136.3 38.1 136 38.3 135.7C38.7 135.1 38.9 134.6 39.1 134.1V133.8H40.5V134.4L40.6 135.7V136.8C40.7 136.8 40.9 137.2 40.9 137.2C41.2 137.5 41.5 137.7 41.9 137.7H44.9L45.1 136.7C45.1 136.2 45.3 135.8 45.5 135.3C47 131.2 52 128 57.2 128.9C60.1 129.4 61.6 132.6 60.4 136.6C60.4 136.9 60.2 137.2 60.1 137.5V137.8C60 137.8 64.1 137.8 64.1 137.8C65.3 137.8 66.6 137.8 67.4 136.9L67.2 135.5L66.4 122.3L69.1 121.4L69.3 126.2V128.8C69.3 131.6 69.3 134.7 69.1 136.9C68.7 139.2 66.6 140.5 63.9 140.4H45.8L45.4 142.2H44.9C44.8 141.8 44.7 141.2 44.7 140.4L44.9 140.2ZM74 140.8V140.3L72.9 121.8L75.5 121L75.7 125.1L75.2 140.1L74 140.7V140.8ZM8.6 140.5H2.5C0.7 140.4 0.2 138.5 0.5 136.5V136.1H1.5V136.5C1.5 137.1 1.8 137.8 2.5 137.8H8.3C10.9 137.8 11.2 136.8 11.1 136.2C10.7 135 10.3 134.3 9.2 132.4L7.8 129.9L9.7 127.8L10 128.3C10.9 130.1 12.2 132.9 12.4 134.6C12.9 137.5 11.9 140.4 8.6 140.4V140.5ZM176.5 140.4H162.5C160.5 140.4 158.8 140.4 157.4 140.2L156.2 140H155.7C155.5 140.1 155.3 140.1 155.1 140.1H144.3C142.2 140.1 141.8 138.9 141.6 137.5V137.2L141.1 138.2C140.4 139.4 139.3 140.2 137.5 140.2H120.4C118.1 140.2 117.1 138.6 116.9 137C116.7 136.4 116.7 134.9 116.6 133.9L115.9 122.9L118.6 122.1V126.2C118.7 127.9 118.6 130.1 118.5 131.7L118.3 135.8C118.3 136.6 118.3 136.9 118.7 137.3L119 137.5C119.4 137.7 119.8 137.8 120.5 137.8H137.6C138.4 137.8 138.9 137.7 139.4 137.3C140 136.9 140.4 136.3 140.8 135.8C141.2 135.2 141.4 134.7 141.6 134.2V133.9H143V135.8C143.2 136 143.2 136.2 143.2 136.4V136.9C143.3 136.9 143.5 137.3 143.5 137.3C143.7 137.5 143.9 137.7 144.1 137.8H151.7L151.2 137.2C150.1 135.3 150.5 132.7 152.3 130.9C154.2 129.1 156 128.9 157.9 129.5H158V129.6C159.2 131 159.7 133.1 159.8 134.6V136.2C159.6 136.8 159.3 137.4 159 137.9V138.1C158.9 138.1 159.1 138.1 159.1 138.1H175.4C177.8 138.1 179.4 137.1 180.2 135.2C180.6 134.3 180.9 133.3 181.2 132.3C182 130.3 183.8 129 185.7 129.7C186.7 130 187.7 130.9 188.4 132.1L189 133.3L189.3 134.1C189.9 136 189.5 138.4 188.2 139.6C187.4 140.4 186.2 140.8 185.1 140.8C183 140.8 181.6 139.6 180.9 138.3V138C180.8 138 180.4 138.7 180.4 138.7C179.5 140.1 178.1 140.7 176.4 140.8L176.5 140.4ZM46.5 137.6H50.5C53.2 137.6 57.2 137.4 59.1 136.9C59.2 135.8 59.1 134.7 58.8 133.6C58.4 132.6 57.6 131.6 56 131.4C54.7 131.2 51.6 131.4 49.2 133.1L48.4 133.7L48 134.3C47.3 135.2 46.8 136.1 46.6 136.8V137.6H46.5ZM158.2 135.3C157.9 133.7 157.3 132.6 156.5 131.5H156C154.7 131.4 153.1 132.1 152.1 133.6C151.9 133.9 151.8 134.2 151.7 134.5C152.1 135 152.7 135.6 153.2 136C153.7 136.5 154.4 136.9 155.4 137.3L156.3 137.6C157.4 136.9 158.2 135.8 158.3 135.4L158.2 135.3ZM188 136.1C188.5 135.3 188.3 134.5 187.4 133.5C186.5 132.5 184.9 131.7 184.2 131.8C183.1 131.9 182.7 133 182.2 134.4L181.7 135.7V136C182.5 136.9 183.7 137.5 185.3 137.5C186.5 137.5 187.4 136.9 188 136.1ZM48.7 125.7L46.8 123.7L48.7 121.7L50.6 123.7L48.7 125.7ZM154 126.5L152.1 124.5L154 122.5L155.7 124.3L157.4 122.5L159.3 124.5L157.4 126.5L155.7 124.7L154 126.5Z" fill="white"/>
<path d="M58.8 236.2H57.3V240.9H57.8V238.9H58.7C59.7 238.9 60.2 238.4 60.2 237.5C60.2 236.6 59.9 236.3 58.7 236.3L58.8 236.2ZM59.5 238.4C59.3 238.4 58.9 238.4 57.9 238.5V236.6H58.9C59.7 236.6 59.9 236.8 59.9 237.5C59.9 238.2 59.9 238.3 59.6 238.4H59.5Z" fill="white"/>
<path d="M63.8 239C63.8 237.9 63.5 237.2 62.3 237.2C61.1 237.2 60.8 237.9 60.8 239.1C60.8 240.2 61.2 240.9 62.3 240.9C63.4 240.9 63.8 240.2 63.8 239ZM62.4 240.6C61.6 240.6 61.4 240.1 61.4 239.1C61.4 238.1 61.4 237.9 61.8 237.7H62.5C63.3 237.7 63.5 238.1 63.5 239.2C63.5 240.3 63.5 240.3 63.2 240.5C63.1 240.6 62.8 240.7 62.4 240.7V240.6Z" fill="white"/>
<path fill-rule="evenodd" clip-rule="evenodd" d="M68.2 240.9L69.1 237.4H68.6L67.8 240.6C67.8 240.2 67.7 239.7 67.6 239.3L67.1 237.4H66.5L65.6 240.6C65.6 240.3 65.5 239.7 65.4 239.3L64.9 237.4H64.4L65.3 240.9H65.9L66.8 237.8L67.7 240.9H68.3H68.2Z" fill="white"/>
<path fill-rule="evenodd" clip-rule="evenodd" d="M73.9 239.5C73.9 238.8 74.1 238.3 74.4 238.1C74.6 237.9 74.9 237.8 75.2 237.8V237.3C74.8 237.4 74.2 237.9 73.9 238.4V237.4H73.4V240.9H73.9V239.5Z" fill="white"/>
<path fill-rule="evenodd" clip-rule="evenodd" d="M90 240.8L91.3 237.3H90.8L89.7 240.5C89.7 240.1 89.5 239.6 89.4 239.2L88.7 237.3H88.2L89.4 240.8H89.5C89.3 241.3 89.1 241.8 88.9 241.9H88.2V242.3H88.5C89.1 242.3 89.5 241.8 89.9 240.8H90Z" fill="white"/>
<path fill-rule="evenodd" clip-rule="evenodd" d="M96.2 236.9L95.9 236.5L95.5 236.9L95.9 237.3L96.2 236.9Z" fill="white"/>
<path d="M95.9 241C96.9 241 97.5 240.5 97.6 239.6V239.2H97.7C97.9 239.4 98.1 239.5 98.5 239.5H99.4C99.7 239.5 100 239.3 100.3 239C100.6 239.3 101 239.5 101.5 239.5C102 239.5 102.2 239.4 102.3 239.2C102.5 239 102.6 238.8 102.6 238.4C102.6 237.7 102.1 236.9 101.5 236.9C100.9 236.9 100.8 237.2 100.3 238C100.1 238.4 99.9 238.7 99.4 238.8H98.4C98.1 238.8 97.9 238.8 97.7 238.5C97.6 238.3 97.5 238.1 97.5 237.9V237.4H97.2V238.8C97.2 239.5 97 240 96.4 240.2H95.8C94.9 240.2 94.4 239.7 94.4 238.8C94.4 237.9 94.4 238.5 94.4 238.3V238.1H94.2V238.6C94.1 238.8 94.1 239 94.1 239.1C94.1 240.2 94.6 240.8 95.8 240.8L95.9 241ZM100.6 238.6C100.9 237.9 101.2 237.6 101.7 237.6C102.2 237.6 102.5 238 102.5 238.5C102.5 239 102.1 239.1 101.6 239.1C101.1 239.1 100.9 239.1 100.5 238.7L100.6 238.6Z" fill="white"/>
<path d="M80.2 240.9C80.7 240.9 81.3 240.4 81.6 239.8V240.8H82.1V235.8H81.6V237.8C81.1 237.4 80.9 237.3 80.5 237.3C79.6 237.3 79.2 238 79.2 239.3C79.2 240.2 79.4 241 80.3 241L80.2 240.9ZM80 237.7H80.5C80.7 237.7 81.1 237.8 81.6 238.2V238.8C81.6 239.5 81.4 240 81.1 240.3C80.9 240.5 80.6 240.6 80.3 240.6C79.8 240.6 79.6 240 79.6 239.2C79.6 238.4 79.6 238 79.9 237.7H80Z" fill="white"/>
<path fill-rule="evenodd" clip-rule="evenodd" d="M131.2 237H130.9V238.1C130.9 238.7 130.4 238.9 129.9 238.9H120.6C120.6 238.9 120.1 238.9 119.8 238.5C119.8 238.5 119.8 238.3 119.7 238.3V238.1L119.3 236.8H118.9L119.4 238.6C119.4 239 119.6 239.2 119.8 239.3C120 239.4 120.2 239.5 120.4 239.5H129.9C130.3 239.5 131.1 239.4 131.1 238.2C131.1 237 131.1 237.8 131.1 237.4V237H131.2Z" fill="white"/>
<path fill-rule="evenodd" clip-rule="evenodd" d="M125.9 240.3L125.5 240.7L125.9 241.1L126.2 240.7L125.9 240.3Z" fill="white"/>
<path fill-rule="evenodd" clip-rule="evenodd" d="M118.5 239.5H118.8L119 239.3V239.1C119.2 239 119.3 238.8 119.3 238.7C119.3 238.6 119.1 238.7 119.1 238.7C119 238.7 118.8 238.9 118.6 238.9H117.4V239.5H118.5Z" fill="white"/>
<path d="M85.2 240.5C85.7 240.8 86 240.9 86.4 240.9C87.3 240.9 87.7 240.2 87.7 238.9C87.7 237.6 87.5 237.1 86.7 237.1C85.9 237.1 85.6 237.5 85.3 238.1V235.6H84.8V240.4H85.2V240.3V240.5ZM85.3 239.4C85.3 238.7 85.5 238.2 85.8 238C86 237.8 86.4 237.7 86.6 237.7C87.2 237.7 87.3 238.3 87.3 239.1C87.3 239.9 87.3 240.3 87 240.6H86.5C86.2 240.6 85.9 240.6 85.4 240.2V239.5L85.3 239.4Z" fill="white"/>
<path d="M78.4 240.1L78 239.9C78 240.1 77.9 240.4 77.7 240.4H77C76.1 240.4 76 239.9 76 239H78.4V238.6C78.4 237.6 78.1 237.1 77 237.1C75.9 237.1 75.5 237.8 75.5 239C75.5 240.2 75.9 240.8 77 240.8C78.1 240.8 78.2 240.5 78.3 240L78.4 240.1ZM76.4 237.7H77.1C77.8 237.7 78.1 238 78.1 238.7C78.1 238.8 76.1 238.9 76.1 238.9C76.1 238.4 76.1 237.9 76.4 237.8V237.7Z" fill="white"/>
<path d="M71.2 237.3C70.3 237.3 69.7 238 69.7 239.2C69.7 240.4 70.1 241 71.2 241C72.3 241 72.4 240.7 72.5 240.2L72.1 240C72.1 240.2 71.9 240.5 71.8 240.5H71.1C70.3 240.5 70.1 240 70.1 239.1H72.5V238.7C72.5 237.7 72.2 237.2 71.1 237.2L71.2 237.3ZM72.1 238.8H70.1C70.1 238.4 70.1 237.9 70.4 237.8H71.1C71.8 237.8 72 238.1 72 238.8H72.1Z" fill="white"/>
<path d="M114.9 238.6C114.4 238.3 114.3 237.6 114.8 237.2C115.1 236.9 115.7 236.9 116.2 237V236.6H116C115.8 236.5 115.5 236.4 115.2 236.4C114.9 236.4 114.6 236.6 114.4 236.8C114.1 237.1 114 237.7 114.2 238.2C114.2 238.3 114.4 238.6 114.5 238.6H114.6L114.3 238.7H109.5C109.3 238.7 109.2 238.6 109.1 238.4C109.1 238.4 108.9 238.2 108.8 238C108.6 237.6 108.4 237.3 108.2 237.1C108 236.9 107.9 236.9 107.7 236.9C107.5 236.9 107.3 236.9 107.1 237.1C106.9 237.3 106.8 237.4 106.7 237.6C106.7 237.8 106.6 238 106.6 238.1V238.7H106.4C106.4 238.5 106.2 238.4 106.1 238.4H105.7C105.6 238.4 105.4 238.5 105.3 238.6V241.4H105.6V239C105.6 238.9 105.8 238.8 105.9 238.8H106L106.3 239.1C106.3 239.1 106.5 239.2 106.6 239.3C106.6 239.3 106.8 239.4 106.9 239.4H107.3C107.5 239.4 107.8 239.4 107.9 239.3C108.1 239.3 108.2 239.1 108.3 239L108.5 238.7C108.5 238.9 108.7 239 108.9 239.1C108.9 239.1 109 239.1 109.1 239.2H115.6L116.4 239V238.4H116.1C115.7 238.6 115 238.6 114.6 238.4L114.9 238.6ZM108.6 238.7C108.4 238.9 108 239.1 107.6 239.1C107.2 239.1 106.8 239.1 106.8 238.5C106.8 237.9 107.1 237.6 107.6 237.6C108.1 237.6 108.4 238 108.6 238.6V238.7Z" fill="white"/>
<path d="M64.4 248.2C63.2 248.2 62.4 249.2 62.4 250.7C62.4 252.2 62.9 253.1 64.4 253.1C65.9 253.1 65.9 252.7 66.1 252L65.6 251.8C65.6 252.1 65.4 252.4 65.2 252.5H64.3C63.2 252.5 62.9 251.9 62.9 250.6H66.1V250.1C66.1 248.8 65.7 248.1 64.3 248.1L64.4 248.2ZM65.7 250.2L63.1 250.4C63.1 249.7 63.2 249.1 63.6 248.9C63.8 248.9 64.1 248.8 64.5 248.8C65.5 248.8 65.7 249.3 65.7 250.1V250.2Z" fill="white"/>
<path d="M61.3 246.3H60.7V252.9H61.3V246.3Z" fill="white"/>
<path fill-rule="evenodd" clip-rule="evenodd" d="M59 246.6L58.5 247.1L59 247.6L59.5 247.1L59 246.6Z" fill="white"/>
<path d="M59.2 248.3H58.6V252.9H59.2V248.3Z" fill="white"/>
<path fill-rule="evenodd" clip-rule="evenodd" d="M28 247.3H29.8V252.9H30.5V247.3H32.3V246.7H28V247.3Z" fill="white"/>
<path d="M51.6 248.2C50.4 248.2 49.6 249.2 49.6 250.7C49.6 252.2 50.1 253.1 51.6 253.1C53.1 253.1 53.1 252.7 53.3 252L52.8 251.8C52.8 252.1 52.6 252.4 52.4 252.5H51.5C50.4 252.5 50.1 251.9 50.1 250.6H53.3V250.1C53.3 248.8 52.9 248.1 51.5 248.1L51.6 248.2ZM52.8 250.2L50.2 250.4C50.2 249.7 50.3 249.1 50.7 248.9C50.9 248.9 51.2 248.8 51.6 248.8C52.6 248.8 52.8 249.3 52.8 250.1V250.2Z" fill="white"/>
<path fill-rule="evenodd" clip-rule="evenodd" d="M57.7 248.3H57L55.8 250.3C55.8 249.9 55.6 249.6 55.4 249.3L54.8 248.3H54.1L55.5 250.5L54 252.9H54.7L55.9 250.9L57.1 252.9H57.8L56.3 250.5L57.7 248.3Z" fill="white"/>
<path fill-rule="evenodd" clip-rule="evenodd" d="M46.2 246.7H45.6V252.9H48.9V252.4H46.2V246.7Z" fill="white"/>
<path d="M40 248.2C38.8 248.2 38 249.2 38 250.7C38 252.2 38.5 253.1 40 253.1C41.5 253.1 41.5 252.7 41.7 252L41.2 251.8C41.2 252.1 41 252.4 40.8 252.5H39.9C38.8 252.5 38.5 251.9 38.5 250.6H41.7V250.1C41.7 248.8 41.3 248.1 39.9 248.1L40 248.2ZM41.2 250.2L38.6 250.4C38.6 249.7 38.7 249.1 39.1 248.9C39.3 248.9 39.6 248.8 40 248.8C41 248.8 41.2 249.3 41.2 250.1V250.2Z" fill="white"/>
<path fill-rule="evenodd" clip-rule="evenodd" d="M35.9 248.2C35.2 248.2 34.3 248.8 33.9 249.6V246.3H33.3V252.9H33.9V251C33.9 250.1 34.2 249.5 34.5 249.1C34.9 248.9 35.3 248.7 35.6 248.7C36.2 248.7 36.2 249.1 36.2 249.5V252.9H36.8V249.5C36.8 248.6 36.6 248.2 35.8 248.2H35.9Z" fill="white"/>
<path d="M68.8 247.3C68.8 247.2 68.8 247.1 68.7 247C68.6 246.9 68.5 247 68.4 247H68V248.3H68.2V247.7H68.5V248.3H68.9L68.6 247.7C68.8 247.7 68.9 247.5 68.9 247.4L68.8 247.3ZM68.4 247.5H68.1V247.1H68.5V247.3C68.5 247.5 68.5 247.3 68.5 247.4L68.4 247.5Z" fill="white"/>
<path d="M69 246.5C68.8 246.4 68.6 246.3 68.4 246.3C68.2 246.3 67.9 246.3 67.8 246.5C67.6 246.6 67.5 246.8 67.4 246.9C67.4 247.1 67.3 247.3 67.3 247.5C67.3 247.7 67.3 248 67.4 248.1C67.5 248.3 67.6 248.4 67.8 248.5C68 248.6 68.2 248.7 68.4 248.7C68.6 248.7 68.9 248.7 69 248.5C69.2 248.4 69.3 248.2 69.4 248.1C69.5 247.9 69.6 247.7 69.6 247.5C69.6 247.3 69.6 247 69.4 246.9C69.4 246.7 69.2 246.6 69 246.5ZM69.2 248.1C69.2 248.3 69 248.4 68.8 248.5C68.6 248.5 68.5 248.6 68.3 248.6C68.1 248.6 67.9 248.6 67.8 248.5C67.7 248.5 67.5 248.3 67.4 248.1C67.4 247.9 67.3 247.8 67.3 247.6C67.3 247.4 67.3 247.2 67.4 247.1C67.4 246.9 67.6 246.8 67.8 246.7C68 246.7 68.1 246.6 68.3 246.6C68.5 246.6 68.7 246.6 68.8 246.7C68.9 246.7 69.1 246.9 69.2 247.1C69.2 247.3 69.3 247.4 69.3 247.6C69.3 247.8 69.3 248 69.2 248.1Z" fill="white"/>
<path d="M135.7 248.4C135.7 247.3 135.2 246.7 133.7 246.7H131.9V252.9H132.5V250.1H134C134.2 250.8 134.5 251.3 134.7 251.7L135.3 252.8H136L134.4 250C135 249.8 135.6 249.3 135.6 248.3L135.7 248.4ZM132.6 249.7V247.3H133.8C134.8 247.3 135.1 247.6 135.1 248.5C135.1 249.4 135 249.4 134.7 249.5C134.5 249.5 134.1 249.6 132.6 249.7Z" fill="white"/>
<path fill-rule="evenodd" clip-rule="evenodd" d="M120.3 246.2C119.4 246.2 118.9 247 118.9 248.3H118.1V248.8H118.9V252.9H119.5V248.8H120.8V248.3H119.5C119.5 247.5 119.5 246.9 119.8 246.8H120.3C120.7 246.8 120.9 246.9 121 247.2L121.4 246.9C121.2 246.5 121 246.2 120.3 246.2Z" fill="white"/>
<path d="M123.1 248.2C121.9 248.2 121.1 249.1 121.1 250.7C121.1 252.3 121.6 253 123 253C124.4 253 125 252.1 125 250.5C125 248.9 124.6 248.2 123.1 248.2ZM124 252.4C123.8 252.5 123.5 252.6 123 252.6C121.9 252.6 121.7 252 121.7 250.7C121.7 249.4 121.7 249.2 122.2 248.9C122.4 248.9 122.7 248.8 123.1 248.8C124.2 248.8 124.4 249.4 124.4 250.7C124.4 252 124.4 252.1 124 252.4Z" fill="white"/>
<path d="M138.7 248.2C137.5 248.2 136.7 249.2 136.7 250.7C136.7 252.2 137.2 253.1 138.7 253.1C140.2 253.1 140.2 252.7 140.4 252L139.9 251.8C139.9 252.1 139.7 252.4 139.5 252.5H138.6C137.5 252.5 137.2 251.9 137.2 250.6H140.4V250.1C140.4 248.8 140 248.1 138.6 248.1L138.7 248.2ZM139.9 250.2L137.3 250.4C137.3 249.7 137.4 249.1 137.8 248.9C138 248.9 138.3 248.8 138.7 248.8C139.7 248.8 139.9 249.3 139.9 250.1V250.2Z" fill="white"/>
<path fill-rule="evenodd" clip-rule="evenodd" d="M155.9 248.2C155.2 248.2 154.3 248.8 153.9 249.6V248.3H153.3V252.9H153.9V251C153.9 250.1 154.2 249.5 154.5 249.1C154.9 248.9 155.3 248.7 155.6 248.7C156.2 248.7 156.2 249.1 156.2 249.5V252.9H156.8V249.5C156.8 248.6 156.6 248.2 155.8 248.2H155.9Z" fill="white"/>
<path d="M162.2 248.3H160.7C160.5 248.3 160.2 248.2 159.8 248.2C158.7 248.2 158 248.9 158 249.9C158 250.9 158.2 251 158.7 251.2C158.2 251.5 158 251.9 158 252.2C158 252.5 158.2 252.8 158.8 252.8C158.2 253.1 157.7 253.6 157.7 254C157.7 254.4 158.2 254.9 159.4 254.9C161.2 254.9 161.9 254 161.9 253.2C161.9 252.4 161.4 252.3 160.4 252.3H159.3C158.8 252.3 158.5 252.1 158.5 251.9C158.5 251.7 158.7 251.4 159 251.3H159.6C160.7 251.3 161.4 250.6 161.4 249.7C161.4 248.8 161.4 249 161.2 248.8H162.1V248.3H162.2ZM159.5 252.9H160.4C161 252.9 161.4 253.2 161.4 253.6C161.4 254 161.3 254.1 161.1 254.3C160.8 254.4 160.1 254.5 159.5 254.5C158.9 254.5 158.5 254.3 158.5 253.9C158.5 253.5 159 253.1 159.6 252.9H159.5ZM160.6 250.8H159.8C158.9 250.8 158.7 250.5 158.7 249.7C158.7 248.9 158.7 248.9 159.1 248.6H159.9C160.8 248.6 161 248.9 161 249.7C161 250.5 161 250.4 160.7 250.7L160.6 250.8Z" fill="white"/>
<path fill-rule="evenodd" clip-rule="evenodd" d="M151.6 246.6L151.1 247.1L151.6 247.6L152.1 247.1L151.6 246.6Z" fill="white"/>
<path d="M143.2 248.2C142.2 248.2 141.8 248.4 141.6 249.4L142.1 249.6C142.2 248.9 142.5 248.7 143.2 248.7C143.9 248.7 143.8 248.7 144 248.8C144 248.8 144.2 249 144.2 249.4V250.2C144.2 250.3 142.9 250.3 142.9 250.3C141.8 250.3 141.3 250.6 141.3 251.8C141.3 253 141.5 253.1 142.4 253.1C143.3 253.1 143.8 252.5 144.2 251.7V253H144.8V249.6C144.8 248.7 144.1 248.3 143.2 248.3V248.2ZM143.6 252.1C143.3 252.3 142.9 252.5 142.6 252.5C142 252.5 142 252.1 142 251.7C142 251.3 142 251.1 142.2 250.9C142.4 250.9 142.7 250.8 142.9 250.8H144.1C144.1 251.4 143.8 251.8 143.5 252.1H143.6Z" fill="white"/>
<path d="M151.9 248.3H151.3V252.9H151.9V248.3Z" fill="white"/>
<path d="M149.2 248.9C148.6 248.4 148.2 248.2 147.7 248.2C146.5 248.2 146 249.1 146 250.8C146 252.5 146.3 253.1 147.4 253.1C148.5 253.1 148.9 252.5 149.3 251.7V253H149.9V246.4H149.3V249L149.2 248.9ZM149.2 250.2C149.2 251.1 148.9 251.7 148.6 252.1C148.3 252.3 147.9 252.5 147.6 252.5C146.9 252.5 146.7 251.7 146.7 250.7C146.7 249.7 146.7 249.1 147.1 248.8H147.8C148.1 248.8 148.6 248.9 149.3 249.5V250.3L149.2 250.2Z" fill="white"/>
<path fill-rule="evenodd" clip-rule="evenodd" d="M126.8 249.7V248.3H126.2V252.9H126.8V251.1C126.8 250.2 127.1 249.6 127.4 249.2C127.7 249 128.1 248.8 128.4 248.8V248.2C127.8 248.3 127.1 248.9 126.7 249.7H126.8Z" fill="white"/>
<path d="M82 248.2C81 248.2 80.6 248.4 80.4 249.4L80.9 249.6C81 248.9 81.3 248.7 82 248.7C82.7 248.7 82.6 248.7 82.8 248.8C82.8 248.8 83 249 83 249.4V250.2C83 250.3 81.7 250.3 81.7 250.3C80.6 250.3 80.1 250.6 80.1 251.8C80.1 253 80.3 253.1 81.2 253.1C82.1 253.1 82.6 252.5 83 251.7V253H83.6V249.6C83.6 248.7 82.9 248.3 82 248.3V248.2ZM82.4 252.1C82.1 252.3 81.7 252.5 81.4 252.5C80.8 252.5 80.8 252.1 80.8 251.7C80.8 251.3 80.8 251.1 81 250.9C81.1 250.9 81.5 250.8 81.7 250.8H82.9C82.9 251.4 82.6 251.8 82.3 252.1H82.4Z" fill="white"/>
<path fill-rule="evenodd" clip-rule="evenodd" d="M78.1 249.7V248.3H77.5V252.9H78.1V251.1C78.1 250.2 78.4 249.6 78.7 249.2C79 249 79.4 248.8 79.7 248.8V248.2C79.1 248.3 78.4 248.9 78 249.7H78.1Z" fill="white"/>
<path fill-rule="evenodd" clip-rule="evenodd" d="M73.4 252.9H74V250.2H76.5V249.6L74 249.8V247.3H76.6V246.7H73.4V252.9Z" fill="white"/>
<path fill-rule="evenodd" clip-rule="evenodd" d="M101.5 252.5C101.5 252 101.3 251.3 101.2 250.8L100.5 248.3H99.7L98.6 252.5C98.6 252.1 98.4 251.4 98.3 250.8L97.7 248.3H97.1L98.3 252.9H99.1L100.3 248.8L101.4 252.9H102.2L103.4 248.3H102.8L101.8 252.5H101.5Z" fill="white"/>
<path fill-rule="evenodd" clip-rule="evenodd" d="M109.3 249.7V248.3H108.7V252.9H109.3V251.1C109.3 250.2 109.6 249.6 109.9 249.2C110.2 249 110.6 248.8 110.9 248.8V248.2C110.3 248.3 109.6 248.9 109.2 249.7H109.3Z" fill="white"/>
<path fill-rule="evenodd" clip-rule="evenodd" d="M115.2 248.3H114.5L113.2 250.2H112.5V246.3H111.9V252.9H112.5V250.7H113.4C113.4 251 113.6 251.3 113.9 251.7L114.7 252.9H115.4L113.7 250.4L115.2 248.3Z" fill="white"/>
<path d="M105.6 248.2C104.4 248.2 103.6 249.1 103.6 250.7C103.6 252.3 104.1 253 105.5 253C106.9 253 107.5 252.1 107.5 250.5C107.5 248.9 107.1 248.2 105.6 248.2ZM106.5 252.4C106.3 252.5 106 252.6 105.5 252.6C104.4 252.6 104.2 252 104.2 250.7C104.2 249.4 104.2 249.2 104.7 248.9C104.9 248.9 105.2 248.8 105.6 248.8C106.7 248.8 106.9 249.4 106.9 250.7C106.9 252 106.9 252.1 106.5 252.4Z" fill="white"/>
<path fill-rule="evenodd" clip-rule="evenodd" d="M90.5 248.2C89.8 248.2 89 248.8 88.5 249.6C88.5 248.6 88.3 248.2 87.5 248.2C86.7 248.2 85.9 248.8 85.5 249.6V248.3H84.9V252.9H85.5V251C85.5 250.1 85.8 249.5 86.1 249.1C86.5 248.9 86.9 248.7 87.2 248.7C87.8 248.7 87.8 249.1 87.8 249.5V252.9H88.4V251C88.4 250.1 88.7 249.5 89 249.1C89.4 248.9 89.8 248.7 90.1 248.7C90.7 248.7 90.7 249.1 90.7 249.5V252.9H91.3V249.5C91.3 248.6 91.1 248.2 90.3 248.2H90.5Z" fill="white"/>
<path d="M94.6 248.2C93.4 248.2 92.6 249.2 92.6 250.7C92.6 252.2 93.1 253.1 94.6 253.1C96.1 253.1 96.1 252.7 96.3 252L95.8 251.8C95.8 252.1 95.6 252.4 95.4 252.5H94.5C93.4 252.5 93.1 251.9 93.1 250.6H96.3V250.1C96.3 248.8 95.9 248.1 94.5 248.1L94.6 248.2ZM95.9 250.2L93.3 250.4C93.3 249.7 93.4 249.1 93.8 248.9C94 248.9 94.3 248.8 94.7 248.8C95.7 248.8 95.9 249.3 95.9 250.1V250.2Z" fill="white"/>
<path d="M90.87 75.4L90.47 73.4L89.97 69.4L90.07 65.3L90.57 61.1L90.97 59L91.77 55.6L93.57 49.6L94.47 46.8L95.37 44.1L97.07 40.2L98.37 37.8L99.77 35.4L101.37 33.1L103.17 30.9L104.97 28.8L106.07 27.8L124.27 11.6L122.47 11.9L118.77 12.7L115.27 13.7L113.67 14.2L110.77 15.4L107.87 16.7L105.07 18.1L102.37 19.7L99.77 21.6L97.37 23.5L94.87 25.6L93.77 26.8L91.27 29.4L88.87 32.2L86.67 35.2L84.57 38.3L82.67 41.6L80.97 45.1L80.27 46.9L79.37 48.9L78.07 53.1L77.47 55.3L76.17 62.2L75.97 63.6L75.57 66.2L75.37 70.1L75.67 77.8L75.97 82.9L90.87 75.4Z" fill="#ED7138"/>
<path d="M47.17 101.3L47.67 100.7L48.07 100.2L48.37 99.7V99.5C48.47 99.5 48.77 99.1 48.77 99.1L49.17 98.3L49.57 97.5L49.97 96.6L50.27 96L50.47 95.4L51.07 93.6L51.97 90.8L52.77 88L53.17 86.3L53.37 85.6L53.87 83.6L54.57 79.6L54.77 77.6L54.97 75.2V75.3L55.27 75.6L55.77 76L56.57 76.6L57.17 77H57.37C57.37 77.1 57.57 77.3 57.57 77.3L58.87 78.1L60.17 78.9H60.37C60.37 79 60.57 79.2 60.57 79.2H60.67V79.6L60.47 79.9L60.17 80.4V80.8C60.07 80.8 59.97 81 59.97 81L61.57 81.9L64.07 83.2L65.77 84L66.37 84.3L66.97 84.6L68.37 85.2L71.17 86.3L73.97 87.4L76.87 88.3L79.77 89.1L81.97 89.6L83.47 89.9L84.97 90.2L86.47 90.4L87.97 90.6L89.47 90.8H91.07C91.07 90.9 92.87 91.1 92.87 91.1H94.67C94.67 91.2 96.47 91.2 96.47 91.2H101.87L103.77 91L105.67 90.8L107.87 90.5L110.07 90.1L112.27 89.6L114.47 89L116.57 88.4L118.67 87.7L120.77 86.9L122.27 86.3L123.77 85.6L125.07 85L126.37 84.3L127.57 83.6L128.77 82.9L129.97 82.1L131.17 81.3L132.37 80.5L133.57 79.7L135.27 78.4L137.47 76.6L139.67 74.7L140.47 73.9L141.27 73.2L142.17 72.2L143.57 70.6L144.27 69.8L144.97 68.9L145.97 67.6L146.87 66.3L147.77 65L148.57 63.7L149.27 62.4L149.57 61.8L149.87 61.2L150.77 59L152.27 54.9L153.37 51.1L154.17 47.4L154.47 45.6L154.67 43.3V42.3V42L154.57 42.1V42.4C154.47 42.4 154.27 42.8 154.27 42.8V43.2C154.17 43.2 154.07 43.6 154.07 43.6L153.57 45L152.97 46.2L152.57 47L152.17 47.6L151.87 48L151.67 48.2V49.2L151.47 49.6L151.27 50.4L150.67 52.1L149.77 54.2L149.47 54.8L149.27 55.3L148.67 56.3L148.07 57.3L147.37 58.4L146.67 59.4L145.87 60.4L145.07 61.4L142.67 62.8L137.87 65.6L133.07 68.2L128.17 70.5L123.27 72.5L118.37 74.2L113.37 75.5L108.37 76.3L105.87 76.5L101.97 76.3L96.17 76L92.27 75.7L90.37 75.5L90.07 73.8L89.67 70.1V68.1L89.57 67V64.7L89.97 61.2L90.37 58.8L90.87 56.5H90.67L90.57 56.7L90.37 56.9H90.07V56.6L89.77 58.5L89.37 61.1L89.07 63.7V67.1C88.97 67.1 88.97 67.4 88.97 67.4V67.8H88.77V68L88.67 68.1H88.57C88.57 68.2 88.47 68.2 88.47 68.2H88.37L88.27 67.9V67.1V66.9L88.07 67.2L87.87 67.9L87.67 69.2V74.9L87.37 75.2H87.17C87.17 75.3 87.07 75.4 87.07 75.4V75.2C86.97 75.2 86.87 75 86.87 75V74.1C86.77 74.1 86.57 73.2 86.57 73.2V73.8C86.47 73.8 86.57 74.9 86.57 74.9V76.1H86.47V76H85.97V76.2H85.77V76V75.7V77.4H85.37L85.17 77.2V77L85.07 76.9V76.7L84.87 76.6H84.47L84.27 76.8V77H83.97V76.7L83.87 76.5H83.57L83.27 76.6H83.17C83.17 76.7 82.97 76.8 82.97 76.8V76.5V77.1C82.87 77.1 82.67 77.7 82.67 77.7V77.4C82.57 77.4 82.57 76.9 82.57 76.9V75.8L82.67 75.6H82.87C82.87 75.5 82.97 75.6 82.97 75.6V73.6L83.17 70L83.37 68.2L83.77 65.8L84.67 61L85.17 58.6V58L85.57 57.1L85.77 56.7V56.5H86.07V57.1L85.87 57.2L85.67 57.4V57.6C85.57 57.6 85.57 58.1 85.57 58.1C85.57 58.2 85.77 58.1 85.77 58.1V57.9L86.07 57.2L86.27 56.6C86.27 56.5 86.57 56.4 86.57 56.4V56.2C86.67 56.2 86.77 56 86.77 56V55.7H86.87H86.67C86.67 55.6 86.27 55.5 86.27 55.5L85.87 55.3L85.37 54.8L85.17 54.2V53.2L85.67 51.8L86.47 49.9L86.77 48.9V48.5H86.67V48.7L86.47 49.2L86.27 49.6V50.3C86.17 50.3 85.77 50.7 85.77 50.7L85.37 51.3L84.77 52.7L84.47 53.5L84.07 54.7V55.1C83.97 55.1 83.67 55.5 83.67 55.5V55.9C83.57 55.9 83.67 56.2 83.67 56.2V56.5L83.37 56.9L83.07 57.3L82.67 58.3V58.5H82.77L82.97 58.2V57.8C83.07 57.8 83.07 57.6 83.07 57.6H83.17V57.8V58.8C83.07 58.8 82.77 59.7 82.77 59.7L82.37 61.1L82.17 62.5C82.17 62.6 82.27 62.8 82.27 62.8H82.37V62.4L82.57 62.1H82.77V62.6L82.67 62.7L82.27 63.2L81.97 64.4V65C81.87 65 81.37 67.7 81.37 67.7L81.17 68.7L80.97 70.7V71.7L80.77 74.4V77.9L80.67 78L80.47 78.2L80.27 78.7V79L80.07 79.3H79.97V77.9L79.87 76.8V72.5L80.07 70.4L80.37 68.3L81.07 64.1L81.57 62V60.9C81.47 60.9 81.17 60.8 81.17 60.8V60.5L81.47 59.9L81.67 59.6V59.4L81.87 58.4L82.17 57.4L82.77 55.4L83.27 53.7L84.57 50.4L85.17 48.7V48.5L85.07 48.3H84.87L84.27 49.5L83.27 52.1L82.37 54.8L81.37 57.4V57.8L81.07 58.4L80.87 58.6V58.8C80.77 58.8 80.67 59.4 80.67 59.4L80.47 59.9V60.1L80.27 60.4V59.5L80.47 59V58.4C80.57 58.4 80.67 58.2 80.67 58.2H80.77C80.77 58.1 80.87 57.9 80.87 57.9V56.5H80.77L80.57 56.8V57.3C80.47 57.3 80.27 57.7 80.27 57.7V58.2C80.17 58.2 79.77 58.7 79.77 58.7C79.77 58.8 79.67 58.8 79.67 58.8V57.8L79.87 57V56.8L80.07 56.3H79.97C79.97 56.2 79.77 56.5 79.77 56.5V56.9L79.17 58.7L78.67 60.2L78.77 59.5L79.17 57.8L80.07 54.5L80.57 52.9H80.07L79.77 53.3V53.7L79.67 54V54.7C79.57 54.7 79.37 54.8 79.37 54.8V53.4C79.27 53.4 79.17 53.5 79.17 53.5V53.7L79.67 51.7V50.8C79.77 50.8 79.27 52.1 79.27 52.1L77.97 55.8L76.77 60.8L75.77 67.2L75.47 70.9V71.4L75.27 71.3L74.77 71L73.17 70.3L70.17 68.6L67.17 66.8L64.27 64.8L61.57 62.6L58.97 60.3L56.57 57.8L54.37 55.1L53.37 53.7L53.17 53.4L52.97 52.9L52.77 52.4L52.17 50.5L51.47 48.7L50.27 45.8L47.57 40.2L44.47 34.8L40.97 29.7L39.07 27.2L38.87 26.9H38.67L38.47 27.2L34.37 34.8L30.27 42.4V43.1C30.37 43.1 30.57 43.3 30.57 43.3L31.77 44.7L33.97 47.6L35.97 50.7L37.77 53.9L38.57 55.5L39.27 57.1L40.47 60.4L41.57 63.8L42.37 67.2L42.97 70.7L43.37 74.2L43.67 77.7V82.9V89.3L43.47 90.5L43.27 91.7V92.3C43.17 92.3 43.07 92.5 43.07 92.5V93V93.1H43.17V92.8L43.47 92.2L43.87 91.6L44.07 91.1L44.27 90.6L44.57 89.5L44.77 88.9V90.3V90.9C44.67 90.9 44.47 91.7 44.47 91.7V93.4L44.17 94.1L43.97 94.7V95.1L43.67 95.8V96.5H43.87V96.3H43.97C43.97 96.2 44.17 96 44.17 96L44.37 95.6V95.3C44.47 95.3 44.67 94.8 44.67 94.8L45.07 93.9L45.47 92.5L45.67 91.6V91.2V91.1H45.77V93.6L45.67 94.7L45.47 95.8L45.27 97L45.07 98.2V98.5V98.6H45.17V98.4V97.9C45.27 97.9 45.57 97.2 45.57 97.2L45.87 96.6L46.07 95.9V95.5V95.3V96.8L46.27 96.7L46.47 96.4L46.67 95.9L47.07 94.8L47.37 94.1V94.3L47.17 95.5L46.97 96.7V97.3C46.87 97.3 46.47 98.6 46.47 98.6L46.07 99.9L45.67 101.1L45.37 101.7V102L47.17 101.3ZM90.97 52.7L91.27 51.9L91.57 51.2H91.47C91.47 51.1 91.17 50.9 91.17 50.9H90.47L90.17 51.3L89.97 51.5V52L90.17 52.4L90.37 52.6L90.47 52.5C90.47 52.4 90.57 52 90.57 52H90.67V52.2L90.57 52.6V52.8H90.87L90.97 52.7ZM78.17 53.5V53.2V53.8V53.5ZM73.27 73.3L70.47 72.1L67.77 70.7L65.17 69.1L62.67 67.3L60.27 65.4L56.77 62.4L54.67 60.3V59.4L55.17 59.7L55.87 60.4L56.07 60.9L56.57 61.4L57.37 62.1L57.77 62.7V63.1L58.77 64L60.67 65.7L63.77 68L68.07 70.7L72.57 73.1L74.77 74.1L73.37 73.6L73.27 73.3ZM74.37 74.6L73.47 74.3L72.67 73.9L71.37 73.3L68.87 72L65.27 69.9L60.77 66.6L56.47 63L55.27 61.3L57.17 63.2L61.37 66.7L65.87 69.8L70.67 72.5L73.17 73.7L73.77 74L74.37 74.2H74.47L74.57 74.4V74.6H74.37ZM70.17 77.6L69.87 77.4L69.07 77L67.67 76.2L65.57 74.9L63.27 73.4L60.97 71.8L58.87 70.3L57.07 69L55.77 68L55.37 67.7L55.27 67.4V65L54.97 62.8L54.77 61.8L56.27 63.2L57.77 64.5L59.77 66.1L61.17 67.3L62.67 68.4L71.57 78L70.37 77.5L70.17 77.6ZM76.57 81.8C76.57 81.7 76.47 79.4 76.47 79.4V75.5C76.37 75.5 76.47 74.2 76.47 74.2V71.3C76.57 71.3 76.87 69.5 76.87 69.5L77.37 65.7V65.5H77.17L77.07 65.7V65.9C76.97 65.9 76.87 66.5 76.87 66.5V68.2C76.77 68.2 76.67 68 76.67 68V67.7V66.7L76.47 66.5C76.47 66.4 76.57 65.5 76.57 65.5L76.97 63.7V63.1C77.07 63.1 77.27 62.8 77.27 62.8H77.37V63.2C77.27 63.2 77.07 64.1 77.07 64.1C77.17 64.1 77.27 63.8 77.27 63.8L77.47 63.5V63.3L77.57 62.8V62.6H77.67V62.8V62.5L77.77 62.4V63.1L77.57 63.6V64.2L77.47 64.5V64.9H77.77V64.4C77.77 64.3 77.97 63.8 77.97 63.8V63.4C77.97 63.3 78.07 63.2 78.07 63.2H78.17C78.17 63.3 78.27 63.6 78.27 63.6V64.4L77.97 65.1V66.7L77.77 67.4V67.7V67.6L78.07 66.7L78.27 65.1L78.47 64.2V64.4L78.07 67.1L77.87 69V69.2L77.77 69.7V69.9V69.3H77.57V69.5L77.37 71V74C77.27 74 77.27 78.5 77.27 78.5V81.5C77.17 81.5 77.07 81.6 77.07 81.6H76.87L76.67 80.7V78.4L76.87 78.2V77.9H76.77V77.7C76.67 77.7 76.57 77.5 76.57 77.5V75.1L76.77 71.8V69.9L76.87 69.6V69.3H76.77L76.57 70V70.8L76.17 73.8V81.3C76.27 81.3 76.27 81.5 76.27 81.5V82.1H75.97L76.57 81.8ZM88.47 75.9H88.37V74.1C88.27 74.1 88.17 70.8 88.17 70.8V68.9H88.47V70L88.67 71.4L88.87 72.1V73.6C88.77 73.6 88.67 74.2 88.67 74.2V74.5L88.87 74.8L88.57 75.4V75.7H88.47V75.9ZM78.07 79V78L77.97 75.4V72.8L78.17 71V70.3C78.17 70.2 78.27 70.5 78.27 70.5V79.1H78.17V78.9H78.07V79Z" fill="#873915"/>
<path d="M74.77 70.8L71.87 69.4L67.57 66.9L64.77 64.9L61.97 62.8L59.17 60.4L56.47 57.7L53.87 54.6L52.57 53L53.47 56.4L54.27 59.8L54.97 60.7L56.57 62.6L58.47 64.5L60.57 66.4L63.07 68.3L65.87 70.1L68.97 72L72.67 73.7L74.67 74.6L74.77 70.8Z" fill="url(#paint0_linear_10_343)"/>
<path fill-rule="evenodd" clip-rule="evenodd" d="M139.87 18.2C139.17 17.8 138.47 17.4 137.77 17C137.17 16.8 136.67 16.5 136.07 16.2C136.07 16.1 135.97 16 135.87 16C134.17 15.4 135.77 12.3 137.47 13L137.57 13.1C137.57 13.2 137.57 13.3 137.77 13.4C138.57 13.8 139.17 14.3 139.97 14.7C141.07 15.1 142.07 15.8 143.17 16.3C143.27 16.3 143.37 16.3 143.37 16.5C143.103 16.5667 142.87 16.5333 142.67 16.4C142.47 16.3 142.17 16.1 141.87 16C141.87 16.2 142.07 16.3 142.17 16.4C142.37 16.5 142.37 16.6 142.17 16.7C142.17 16.7 141.97 16.7 141.97 16.8C141.97 16.9 141.97 17 142.17 17.1C142.47 17.3 142.77 17.5 143.07 17.7C143.27 17.8 143.27 17.9 143.07 18.1C142.77 18.3 142.57 18.3 142.27 18.1C141.87 17.7 141.37 17.5 140.87 17.3C139.77 16.7 138.77 16 137.57 15.5C136.87 15.2 136.17 15 135.37 14.7H135.27C135.27 14.9 135.57 15 135.67 15.1C136.87 15.4 137.97 16 139.07 16.5C139.67 16.8 140.17 17.1 140.57 17.6H140.37C140.37 17.6 140.17 17.6 140.17 17.7V17.9L140.27 18C140.87 18.4 141.37 19 141.97 19.4C141.17 19.1 140.67 18.5 139.97 18.1L139.87 18.2Z" fill="#873915"/>
<path d="M103.27 84.3L107.57 84L111.77 83.5L113.77 83.2L116.17 82.5L120.57 81.1L124.67 79.4L128.47 77.6L131.97 75.6L137.97 71.4L140.57 69.1L142.87 66.7L144.97 64.3L148.37 59.5L149.67 57.1L150.67 54.8L151.57 52.5L152.27 50.3L152.47 49.2L152.67 48.7V48.4V48.2L152.57 48.1H152.47V48V47.9H152.37V47.8H152.27L152.07 47.9L151.87 48.1L151.77 48.2L151.27 49.1L150.07 50.7L149.47 51.5L148.57 52.6L147.67 53.7L147.27 54.1L145.97 55.5L143.37 58L140.87 60.2L138.47 62.1L137.27 62.9L135.67 64L132.47 66.1L129.27 67.9L126.07 69.6L122.77 71.1L119.47 72.4L116.17 73.5L112.87 74.4L111.17 74.7L109.77 75L106.97 75.4L103.07 75.8L98.07 75.9L93.37 75.6L91.07 75.3L88.67 76.7L83.57 79.4L80.87 80.6L79.97 81.2L78.97 81.7L81.17 82.3L85.57 83.3L89.97 83.9L94.47 84.3L98.87 84.5L103.27 84.3Z" fill="#ED7138"/>
<path d="M69.47 15.9L69.27 15.6L69.17 15.4H69.07L69.17 15.3L69.57 15.2L70.97 15.3L71.47 15.5H71.57H71.77L71.87 15.4V15.3L71.77 15.2V15.1L71.37 14.8L71.17 14.2L71.27 13.7L71.67 13.6L71.87 13.8L71.97 13.9H72.17L72.37 13.8H72.47L72.77 13.7L73.27 13.5L73.67 13.1L73.97 12.7L74.07 12.5L74.17 12.2H74.37L74.57 12.1L74.87 11.8L74.97 11.6L75.57 10.9L76.87 9.5L77.57 8.9L77.77 8.8L77.87 8.6L77.97 8.2L78.67 7.6L78.97 7.2L79.37 6.8L79.27 6.3L78.77 6.1H78.67V6L78.07 5.8L77.97 5.4L78.37 4.9L78.67 4.6L78.97 4.2L77.77 3.2L76.57 2.3L75.27 1.2L73.97 0.2L71.87 -1.4L69.77 -2.9H69.67L69.47 -3L69.37 -2.9L69.27 -2.8L68.17 -1.4L67.07 0L64.07 4.4L61.17 8.8L60.87 9.2V9.6L61.37 9.9L65.07 12.7L68.87 15.6L69.17 15.9L69.47 16.2V15.9Z" fill="#873915"/>
<path d="M72.37 18.2H72.47L72.57 18.1H73.17L73.67 17.5L74.07 17L78.07 12.2L82.07 7.40001H82.17V7.00001C82.17 6.90001 81.67 6.40001 81.67 6.40001L81.07 5.90001L78.17 3.50001L75.27 1.20001L75.07 1.60001L74.77 2.00001L74.37 2.50001V2.90001L74.97 3.20001L75.47 3.50001V3.90001L75.17 4.30001L74.87 4.60001L74.17 5.20001L73.97 5.60001V5.80001L73.77 5.90001L73.07 6.50001L71.77 7.80001L71.27 8.60001V8.80001C71.17 8.80001 70.77 9.00001 70.77 9.00001H70.57L70.37 9.20001V9.40001L70.27 9.60001L69.97 10L69.57 10.4L69.07 10.6H68.77L68.67 10.7H68.47V10.6L68.67 10.8H68.57V11.2L68.37 11.3H68.17C68.17 11.2 66.97 10.5 66.97 10.5L65.87 9.70001L65.07 9.10001L64.27 8.60001H64.07C64.07 8.70001 64.17 8.90001 64.17 8.90001L64.37 9.10001H64.67C64.67 9.20001 66.77 10.7 66.77 10.7L68.87 12.3L70.37 13.5L71.87 14.8V15V15.2H71.57L71.07 14.9L70.67 14.6L68.97 13.2L67.17 11.9L65.67 10.9L64.17 9.80001H63.87C63.87 9.70001 63.37 9.80001 63.37 9.80001H63.27V10.1L63.37 10.7L63.57 10.9L64.07 11.2L64.57 11.5L65.67 12.3L66.77 13.1L67.47 13.6L68.07 14.2L68.67 14.8L69.37 15.3H69.57C69.57 15.4 69.77 15.8 69.77 15.8V16L70.97 17L72.27 17.9H72.57L72.37 18.2ZM69.17 11.7L68.57 11.2H68.67L69.37 11.7L69.97 12.3L69.07 11.7H69.17Z" fill="url(#paint1_linear_10_343)"/>
<path d="M100.47 91.1L102.47 91L104.67 90.8L108.87 90.1L112.97 89.2L117.07 88L121.07 86.6L124.97 84.8L128.87 82.8L132.57 80.4L134.37 79.1L133.07 80L130.17 81.7L126.97 83.3L123.57 84.8L119.87 86.1L115.97 87.1L111.97 88L107.77 88.7L103.47 89.2L99.07 89.4L94.67 89.3L90.17 89L85.67 88.4L81.27 87.6L76.97 86.4L72.67 84.9L70.57 84L67.87 82.8L65.67 81.8L61.87 79.7L58.77 77.7L56.27 75.8L55.17 74.8H55.07L54.97 74.9L54.77 77.4L55.87 78.3L56.97 79L57.87 79.6L59.37 80.4L61.27 81.6L63.17 82.6H63.27L66.47 84.2L69.77 85.6L71.77 86.5L75.87 87.9L79.97 89.1L83.97 90L88.17 90.6L92.27 91L96.37 91.2L100.47 91.1Z" fill="#873915"/>
<path fill-rule="evenodd" clip-rule="evenodd" d="M74.57 18.8C76.97 15.1 79.87 11.7 82.77 8.40003C83.17 8.00003 83.27 8.10003 82.97 8.50003C80.57 12.2 77.87 15.6 74.77 18.8C74.47 19.1 74.37 19 74.47 18.8H74.57Z" fill="#873915"/>
<path d="M120.07 12.9L119.87 13.1L119.67 13.3L120.07 12.9Z" fill="#873915"/>
<path d="M97.27 82.2H97.47C98.87 82.2 100.17 82.2 101.57 82.1C101.87 82.1 102.07 81.9 102.37 81.7C102.67 81.6 103.07 81.6 103.37 81.6H106.37C106.67 81.6 106.97 81.6 107.27 81.4H107.87C108.07 81.4 108.27 81.4 108.47 81.3C108.77 81.1 109.07 81.2 109.37 81.2C109.57 81.2 109.77 81.2 109.87 81C109.97 80.9 110.07 80.8 110.27 80.8H112.07C112.07 80.7 113.77 80.4 113.77 80.4L115.07 80.2L117.67 79.6C118.27 79.5 118.97 79.3 119.27 78.9C120.27 78 120.57 78.7 121.97 78.1L124.57 77L128.87 74.9L131.37 73.5L132.37 72.8C132.77 72.6 132.97 72.5 132.97 72.2C132.87 72 133.97 71.7 134.77 71.3C135.27 71 135.27 70.9 134.67 71.1L135.27 70.6L137.17 69.2C137.67 68.9 137.77 68.7 137.87 68.6C137.87 68.6 137.87 68.5 137.37 68.7L136.87 69L134.47 70.7L133.47 71.2L132.97 71.5L132.47 71.8L131.87 72.2L128.37 73.9L123.77 75.9L120.87 77L119.67 77.4C117.57 78.2 116.37 77.8 114.47 78.6C111.57 79.2 108.77 79.4 105.97 79.5C101.57 79.9 97.27 79.5 92.97 79.1L91.27 78.8L89.57 78.5H88.97C88.97 78.4 87.67 78.2 87.67 78.2L87.07 78H86.57L85.67 78.4L84.87 78.8L84.27 79.1L83.77 79.4L83.17 79.6L82.67 80L81.67 80.4L80.77 80.9L81.77 81.2L82.77 81.4H84.17C84.17 81.5 85.57 81.7 85.57 81.7L86.07 81.9H87.07C87.07 82 87.97 82 87.97 82H88.37V81.8L88.07 81.7H87.77L87.37 81.6H86.97C86.97 81.5 86.27 81.4 86.27 81.4L84.97 81L84.37 80.8L83.87 80.6H84.17L85.07 80.8L86.07 81L87.07 81.2L89.27 81.6L91.47 81.9C91.67 81.9 91.67 82.1 91.97 82.1C93.17 82.3 94.47 82.4 95.77 82.4H97.37L97.27 82.2Z" fill="#873915"/>
<path d="M101.97 78.5L103.37 78.4L105.27 78.3L107.17 78.1L109.47 77.8L114.17 77L116.47 76.4L118.57 75.8L120.67 75.1L121.97 74.7L123.27 74.2L125.47 73.3L127.57 72.3L129.27 71.5L130.87 70.7L132.17 70L133.37 69.3L134.47 68.6L135.57 67.9L136.47 67.3L137.27 66.7L138.57 65.7L139.77 64.8L140.37 64.3L140.97 63.8L141.97 62.8L143.07 61.9L143.67 61.2L144.27 60.6L144.47 60.3L144.77 60.1L145.27 59.5L145.77 59L146.57 57.9L148.07 55.7L148.87 54.6L149.17 54L149.57 53.3L150.07 52.3L150.47 51.2L150.87 50.5L151.07 49.7L151.17 49.3L151.37 49V48.9H151.27L150.87 49.6L150.77 50L150.67 50.3L150.17 51.7L149.47 53L148.87 54.2L147.37 56.4L146.57 57.5L145.67 58.7L143.67 60.9L141.47 62.9L139.27 64.8L138.07 65.7L136.57 66.8L133.47 68.8L130.17 70.7L126.87 72.3L125.17 73L122.87 74L118.17 75.5L113.47 76.7L108.57 77.6L106.07 77.9L104.47 78L102.87 78.1H101.97H100.97H99.87H98.67L96.87 78L94.97 77.8L93.27 77.5L91.47 77.3L90.17 77L88.97 76.7H88.77V76.9V77L88.87 77.1L90.47 77.5L93.67 78L95.27 78.2L96.67 78.3L98.17 78.4L99.37 78.5H100.57H101.97Z" fill="#873915"/>
<path d="M74.77 74.7V74.6V74.5L74.67 74.3H74.57L73.87 74.1L73.17 73.7L70.87 72.6L68.47 71.3L67.17 70.6L64.67 69L63.47 68.2L61.47 66.8L59.57 65.2L58.17 64L56.77 62.8L56.07 62L55.37 61.4L54.87 60.9L54.37 60.5L54.47 61.3L55.07 61.7L55.57 62.1L56.67 63.2L57.87 64.1L60.27 66.2L61.97 67.6L65.77 70.2L67.77 71.3L68.37 71.7L68.97 72.1L69.67 72.4L70.27 72.7L70.87 73L72.07 73.7L72.77 74L73.37 74.3L74.37 74.7L74.67 74.8L74.77 74.7Z" fill="#ED7138"/>
<path d="M74.67 73.8C74.67 73.7 74.47 73.6 74.47 73.6H74.27L72.27 72.7L68.27 70.7L66.37 69.5L64.07 68.1L60.87 65.7L58.87 63.9L57.87 63L57.67 62.5C57.27 61.9 56.77 61.5 56.27 61.2L56.07 61L55.87 60.6L55.37 59.9L54.97 59.7H54.87C54.87 59.6 54.77 59.5 54.77 59.5L54.57 59.1C54.37 58.9 54.17 58.7 53.97 58.6L54.27 59.9V60.2H54.57V60.4C54.67 60.4 55.77 61.5 55.77 61.5L57.97 63.5L59.07 64.5L60.97 66.2L62.97 67.8L64.27 68.7L66.97 70.4L68.37 71.2L69.77 72L72.77 73.4L74.27 74H74.37L74.67 74.2V73.8Z" fill="#873915"/>
<path d="M101.57 21.7H101.67L101.87 21.5V21.1C101.97 21.1 101.87 20.9 101.87 20.9L101.47 21.2L101.07 21.5C101.07 21.6 101.17 21.7 101.17 21.7H101.57ZM95.47 27H95.67C95.67 26.9 96.37 26.2 96.37 26.2L97.07 25.5L97.87 24.7L98.67 23.9L99.77 23L100.87 22.1V22V21.8L100.77 21.6H100.57V21.8L99.67 22.5L98.77 23.2L96.67 25L94.67 26.9H94.97C94.97 27 95.47 26.9 95.47 26.9V27ZM96.27 27.9L96.47 27.7V27.3L96.27 27.1H95.87L95.67 27.3V27.7L95.87 27.9H96.27ZM98.37 27.9H98.57V27.5H98.37C98.37 27.4 98.27 27.3 98.27 27.3H98.17L98.07 27.5V27.8L98.27 28H98.57L98.37 27.9ZM102.27 30.3V30.1C102.37 30.1 102.17 30.2 102.17 30.2H101.97C101.97 30.3 102.07 30.5 102.07 30.5V30.3H102.27Z" fill="#873915"/>
<path d="M74.87 78.9V75.6L74.77 75.5V75.3H74.57L72.87 74.6L71.17 73.8L68.87 72.6L64.47 70L62.37 68.6L60.97 67.5L59.57 66.3L57.57 64.7L55.67 62.9L55.17 62.4L54.57 61.8L54.77 63.2L55.07 65.9V67.3L55.17 67.7L55.37 67.9L57.87 70L60.37 71.9L62.77 73.5L67.67 76.5L70.17 77.8L71.37 78.3L73.67 79.3L74.87 79.7V79V78.9ZM66.17 76.9H65.97C65.97 76.8 64.97 76.1 64.97 76.1L63.97 75.5L62.87 74.8L60.77 73.2L59.67 72.4L58.87 71.8L57.37 70.5L56.47 70H56.27C56.27 69.9 56.07 69.6 56.07 69.6L55.87 69.4H55.67C55.67 69.3 55.57 69.2 55.57 69.2H55.37V70.7L55.67 71.2H55.97C55.97 71.3 56.67 71.6 56.67 71.6L57.27 72L57.97 72.5L58.67 73L59.67 73.7L60.67 74.3L61.77 74.9L63.97 76.1L65.07 76.6L65.57 76.8H66.17C66.17 76.9 66.17 76.7 66.17 76.7V76.9ZM66.87 80.6H66.67C66.67 80.5 65.57 79.7 65.57 79.7L64.47 79L63.27 78.2L60.97 76.4L59.77 75.6L58.87 75L57.27 73.6L56.27 73.1L55.97 72.9L55.77 72.7L55.57 72.5H55.37C55.37 72.4 55.27 72.3 55.27 72.3V74L55.67 74.5H56.07C56.07 74.6 56.77 75 56.77 75L57.37 75.5L58.07 76.1L58.87 76.7L59.97 77.4L61.17 78.1L62.37 78.8L64.77 80.1L65.97 80.6L66.57 80.9H67.17C67.17 81 67.07 80.8 67.07 80.8L66.87 80.6Z" fill="#ED7138"/>
<path d="M147.57 19.7L147.37 19.5L147.27 19.4V19.6L147.47 19.8H147.67L147.57 19.7Z" fill="#ED7138"/>
<path d="M147.77 20L147.37 19.5V19.7L147.57 20H147.77Z" fill="#ED7138"/>
<path d="M147.87 20L147.67 19.8L147.47 19.6V19.9L147.67 20.1L147.87 20Z" fill="#ED7138"/>
<path d="M147.97 20.1L147.77 19.9L147.57 19.7L147.47 20L147.67 20.1H147.97Z" fill="#ED7138"/>
<path d="M146.87 21.6L146.67 21.4L146.37 21.2L146.67 21.4L146.77 21.6H146.87Z" fill="#ED7138"/>
<path d="M148.67 40.4L148.47 39L148.27 38.3L148.17 38.1L148.27 37.9L148.17 37.4L147.87 36.9L147.77 36.8V36.7H147.87H147.97L148.17 36.9L148.27 37.2L148.37 37.4L148.47 37.6V37.8H148.57L148.67 37.7V37.6L148.47 36.6L148.07 35.6L147.97 35.2L147.77 34.8L146.97 33.2L144.97 30L143.87 28.5L143.17 27.8L142.67 27.1L142.07 26.6L141.07 25.3L140.67 24.5L140.57 24.3L140.27 24L139.97 23.9L139.77 23.6L139.37 23.3L138.67 22.6L137.87 21.9H137.97L138.17 22L138.27 21.9V21.8L138.07 21.7L137.57 21.4L137.17 20.9L137.07 21H136.87L136.37 20.7L135.87 20.6H135.57L135.37 20.4L135.07 20.1L134.37 19.8L134.07 19.7L132.97 19.3L130.67 18.4L129.47 18.1H129.27L128.87 17.7H128.67L128.17 17.8L127.67 17.9L126.87 17.7H125.97L125.17 17.6H124.27H124.07H122.87L120.57 18L119.37 18.2L119.07 18.3H118.87L118.47 18.6L118.07 18.7L117.37 18.9L116.77 19.2L116.57 19.3L116.47 19.5H116.77L117.07 19.4L117.87 19.1L119.57 18.6L122.07 18.3L123.87 18.2H124.77L126.47 18.4L127.37 18.5L128.97 18.8L131.97 19.9L133.47 20.6L135.17 21.4L138.17 23.6L139.57 24.8L140.57 25.7L142.37 27.5L143.17 28.4L144.47 30L146.07 32.5L146.97 34.3L147.37 35.2L147.47 35.4V35.6L147.27 35.5V35.3L146.77 34.3L146.27 33.4L145.37 31.7L143.17 28.8L141.97 27.3L140.37 25.8L138.67 24.3L137.47 23.4L136.27 22.5L136.17 22.4H135.97V22.6L136.17 22.7L136.57 23L136.87 23.2L137.87 24L139.87 25.6L141.67 27.4L143.37 29.3L144.07 30.4L144.57 30.9L145.07 31.8L145.37 32.4V32.8V32.9H145.47L145.77 33.2L145.87 33.5L145.97 33.8L146.37 34.4L146.47 34.8H146.57V34.9L146.77 35L146.87 35.2L147.27 36.2L147.97 38.3L148.37 39.4L148.57 40.3L148.77 41.1L148.67 40.4Z" fill="#ED7138"/>
<path d="M147.67 41V40.8L147.57 40.5V40.2L147.27 39.1L146.57 37L145.67 35L144.67 33.1L144.07 32.2L143.37 31.1L141.77 29.2L140.87 28.3L139.97 27.2L137.77 25.4L136.67 24.5L135.37 23.5L132.57 21.8L131.07 21.2L130.17 20.8L128.27 20.1L127.27 19.9L125.97 19.6L124.67 19.5L123.57 19.4H122.37H121.67L120.87 19.5L119.87 19.6L117.87 20L116.87 20.3H116.77L116.67 20.5L117.37 20.4L118.07 20.2L118.87 20L120.47 19.8H121.27L122.27 19.7H124.27L125.27 19.9L126.17 20L127.97 20.5L129.87 21.1L131.67 21.8L132.47 22.2L133.47 22.8L135.37 24L138.07 26.1L139.77 27.7L140.97 28.9L141.97 30.2L143.17 31.7L145.07 34.9L145.87 36.6L146.27 37.7L146.97 40L147.37 41.2H147.47L147.67 41Z" fill="#ED7138"/>
<path d="M147.67 53.7L148.57 52.6L149.47 51.5L150.67 49.9L151.77 48.2V48C151.87 48 151.97 47.9 151.97 47.9H152.47V48.6L152.27 49.3V49.6C152.17 49.6 151.87 50.1 151.87 50.1L151.67 50.6H151.97L152.17 50.1L152.37 49.7L152.97 48.5L153.97 46L154.37 44.7V44.3L154.67 43.7L154.87 43.4V40.5L154.67 36.3L154.37 34.2L154.17 32.9L153.57 30.3L152.77 27.7L151.77 25.3L151.17 24.1L149.97 22.3L147.47 19.1L144.87 16.5L142.07 14.5L139.27 13L136.37 12L133.57 11.4L130.87 11.1H128.07L125.27 11.5L124.07 11.8L122.37 12.2L118.87 13.3L117.67 13.8L117.27 14H118.87L117.37 14.4L115.87 14.9L115.37 15.1L114.87 15.4H115.17L115.47 15.3L115.97 15.1L116.77 14.9H117.07L116.07 15.3L114.07 16.2L113.17 16.7L114.57 16.3L114.07 16.6L113.57 16.9L112.07 17.7L110.67 18.6L110.17 18.9L109.77 19.3L110.37 19.1L110.87 18.8L111.67 18.4L112.47 18.1V18.3H112.27L111.07 19.1L109.87 19.9L108.17 21.1L106.57 22.4H106.37V22.7H106.67L107.37 22.2L108.07 21.8L109.57 20.9L111.07 20.2L110.87 20.4L110.67 20.6L108.77 21.9L106.87 23.2L106.17 23.7L104.87 24.9L104.27 25.6V25.9L104.47 26H104.67C104.67 25.9 106.17 24.8 106.17 24.8L107.67 23.9H107.77L107.57 24.2L107.37 24.4L106.37 25.3L104.57 27.3L103.67 28.3L103.17 28.9L102.67 29.6V29.8L102.47 29.9V29.2L102.27 29H101.77L101.37 29.2V29.6L101.67 30H101.97C101.97 30.1 102.17 30 102.17 30H102.37L101.97 30.7L101.57 31.3L101.07 32.2L100.67 33.1V33.4H100.87L100.97 33.2V33C101.07 33 102.07 31.9 102.07 31.9L103.97 29.7L106.07 27.7L108.37 25.9L109.67 25.1L110.87 24.4L112.07 23.7L113.87 22.9L115.77 22.2L117.57 21.8L119.37 21.5H120.67C120.67 21.4 123.37 21.5 123.37 21.5H124.77C124.77 21.6 125.67 21.7 125.67 21.7L127.37 22.1L128.17 22.4L129.27 22.8L131.37 23.7L133.37 24.9L135.27 26.2L137.07 27.6L138.67 29.2L140.17 31L141.57 32.9L142.17 33.9L143.27 35.8L144.27 37.8L144.87 39.2L145.87 42.1L146.27 43.6L146.57 44.9L146.97 47.5L147.17 50.1V52.7L147.07 54V54.2L147.87 53.3L147.67 53.7ZM145.47 40.1V39.9V40.2V40.1Z" fill="#873915"/>
<path d="M150.17 37.1V36.9L150.27 36.5V36.3C150.17 36.3 150.07 36.2 150.07 36.2V35.5L149.67 34.7V34.1C149.57 34.1 149.57 33.8 149.57 33.8V33.2H150.17L150.37 33V32.5L150.17 32.2L149.97 32V31.7C149.87 31.7 149.77 31.6 149.77 31.6V31.2H149.87L150.07 31.4C150.07 31.5 150.57 32.2 150.57 32.2L150.87 33C150.87 33.1 150.97 33.2 150.97 33.2V32.4C150.87 32.4 150.37 31.1 150.37 31.1L150.07 30.5V30.3L149.67 30H149.47V29.9H149.37V29.5C149.47 29.5 149.37 29.2 149.37 29.2V28.9C149.37 28.8 149.47 28.8 149.47 28.8L149.67 29.2L149.87 29.5L150.07 29.7L150.37 30.1V30.4L150.57 30.8L150.87 31.2V30.8L150.77 30.5L150.37 29.5L149.57 28.1L148.87 27.3L148.27 26.6L148.07 26.3V26.1H148.17V26.2L149.07 27.1L149.87 28L150.27 28.5L150.77 28.9L149.97 27.5L149.07 26.3L148.57 25.7L147.57 24.5L146.97 23.9H147.17L148.07 24.6L148.87 25.4L149.47 26.2L150.27 26.9L149.67 25.7L148.97 24.5L148.27 23.5L147.47 22.6L146.87 22L146.47 21.3H146.67L146.87 21.5L147.97 22.4L149.07 23.4H149.17C149.17 23.5 149.37 23.6 149.37 23.6V23.4L149.17 23.1L147.67 21.3L146.07 19.6V19.4V19.1H145.97L145.87 18.9C145.87 18.8 145.97 18.7 145.97 18.7H146.07C146.07 18.8 146.67 19.4 146.67 19.4L147.27 20L147.67 20.4L148.07 20.8H148.17C148.17 20.9 148.27 20.9 148.27 20.9C148.27 20.8 148.17 20.6 148.17 20.6L147.97 20.2L147.67 19.8C147.67 19.7 147.27 19.2 147.27 19.2L145.97 18L144.77 17L143.07 15.7L140.57 13.9L139.27 13.1H138.87C138.87 13 138.27 12.9 138.27 12.9L137.67 12.7H137.47L137.27 12.6L135.97 12.1L133.27 11.5H131.87C131.87 11.4 131.47 11.4 131.47 11.4H131.27L130.87 11.3H129.87L130.47 11.6L131.77 11.8L132.37 12L130.57 11.8H126.97C126.97 11.9 125.17 12.1 125.17 12.1L125.87 11.9H126.87V11.7H125.67L123.47 12.2L122.37 12.6H121.97C121.97 12.7 121.67 12.9 121.67 12.9H121.47C121.47 13 121.17 13.1 121.17 13.1H120.97V13.4L120.47 13.8H120.17C120.17 13.9 119.67 14.1 119.67 14.1L119.17 14.3H119.07V14.5H119.27L119.77 14.2L120.87 13.9L121.37 13.7V13.9L121.17 14.2H120.97L119.87 14.8H119.67L119.37 15.2V15.4C119.27 15.4 119.17 15.5 119.17 15.5H118.77V15.7L118.57 15.9V16.1H119.27L119.57 15.9L120.07 15.7H120.67C120.67 15.6 121.57 15.4 121.57 15.4H122.47C122.47 15.3 123.37 15.1 123.37 15.1L125.17 14.9H127.87V14.8H128.97C128.97 14.9 129.87 14.9 129.87 14.9H129.97V14.8C129.97 14.7 129.87 14.6 129.87 14.6H129.27L128.67 14.5H128.27L127.97 14.3H129.37L130.37 14.5L131.67 14.7L134.27 15.5L135.57 16H135.67V16.2C135.67 16.3 135.77 16.4 135.77 16.4L136.77 16.9L138.67 18L139.57 18.6H139.77V18.9H139.67C139.67 19 139.47 19 139.47 19H139.37L139.27 18.9L138.47 18.4L136.87 17.5L136.07 17.1L134.87 16.6L132.27 15.7L130.97 15.3H130.77L130.67 15.4C130.67 15.5 130.87 15.6 130.87 15.6L131.97 15.8L133.07 16.1L134.67 16.7L136.97 17.7L138.47 18.5L139.17 19L139.77 19.4L140.37 19.8L140.67 20L141.07 20.6V21C141.17 21 141.37 21.4 141.37 21.4L141.87 22.1L142.27 22.3H142.37L142.47 22.4H142.57C142.57 22.5 142.77 22.8 142.77 22.8C142.77 22.9 142.67 23 142.67 23H142.47C142.47 22.9 142.37 22.8 142.37 22.8L141.97 22.6L141.67 22.3V22.1C141.57 22.1 140.07 21.1 140.07 21.1L137.87 19.8L135.47 18.6L134.47 18.3H134.27V18.6H134.57L135.57 19.1L137.37 20.1L139.87 21.8L141.17 22.9L141.57 23.3V23.5L141.47 23.7H141.37L141.17 23.5H140.87L141.07 23.9L141.37 24.3L141.57 24.5V24.7H141.27L140.97 24.3L140.57 24.1L140.87 24.7L141.17 25.2L141.37 25.4L141.77 25.8V26.4C141.87 26.4 142.07 26.6 142.07 26.6V26.8C142.17 26.8 142.37 27.1 142.37 27.1V27.3L143.07 28.2L145.57 31.7L147.07 34.1L147.57 35L147.77 35.4V35.8C147.87 35.8 148.07 35.6 148.07 35.6V35V34.4L148.67 35.3L149.07 36.2L149.57 37.4C149.57 37.5 149.67 37.6 149.67 37.6H149.77V37.4L150.17 37.1ZM138.37 17H138.17C138.17 16.9 138.37 17 138.37 17Z" fill="url(#paint2_linear_10_343)"/>
<path d="M148.17 41.9V41.5V41L148.07 40.5V40C147.97 40 147.57 39.1 147.57 39.1L147.27 38.2L147.07 37.7L146.87 37.2V36.9C146.77 36.9 146.57 36.6 146.57 36.6V36.3L146.37 36L145.97 35.1L145.47 34.2V33.9C145.37 33.9 145.17 33.6 145.17 33.6L144.97 33.4V33.2C144.87 33.2 144.77 33 144.77 33V32.8L144.67 32.6H144.57C144.57 32.5 143.77 31.4 143.77 31.4L142.17 29.3L141.27 28.3L139.97 26.9L138.57 25.6L137.07 24.3L134.67 22.5L132.97 21.5L132.07 21.1L131.07 20.7L129.07 19.9L128.07 19.6H127.67C127.67 19.5 127.27 19.5 127.27 19.5H120.67L120.37 19.6H119.87L119.37 19.8H118.97L118.57 20H118.17C118.17 20.1 117.87 20.2 117.87 20.2H117.67L117.47 20.4H118.37C118.37 20.3 118.87 20.1 118.87 20.1L119.47 19.9H120.07L120.37 19.8H126.67L126.97 19.9H127.37C127.37 20 127.77 20.1 127.77 20.1H128.27C128.27 20.2 128.77 20.4 128.77 20.4H129.17C129.17 20.5 129.37 20.6 129.37 20.6H129.57L130.57 21L131.57 21.4L132.07 21.6L132.47 21.8H132.77C132.77 21.9 133.07 22.1 133.07 22.1H133.37C133.37 22.2 133.67 22.4 133.67 22.4L134.07 22.6L134.47 22.8L134.87 23.1L135.27 23.4H135.47C135.47 23.5 135.67 23.7 135.67 23.7L136.37 24.2L136.97 24.7L137.27 24.9L137.47 25.1L137.67 25.3L137.87 25.5L138.07 25.7L138.37 25.9L138.57 26.1L138.77 26.3H138.97C138.97 26.4 139.17 26.6 139.17 26.6L139.47 26.9L139.77 27.2H139.87L139.97 27.4V27.6C140.07 27.6 140.27 27.7 140.27 27.7V27.8L140.67 28.2L141.07 28.7H141.17C141.17 28.8 141.27 28.9 141.27 28.9L141.47 29.1L141.67 29.3V29.7C141.77 29.7 141.97 29.9 141.97 29.9V30V30.2L142.17 30.5L142.37 30.8V31C142.47 31 142.57 31.2 142.57 31.2L142.77 31.4L142.97 31.6L143.17 31.9L143.37 32.3L143.97 33.2L144.57 34.1L144.77 34.5L144.97 34.9L145.67 36.4V36.6L145.87 37.1L146.07 37.6L146.27 38.1L146.47 38.6L146.67 39.4L146.87 40.2V40.4L147.07 40.7V41.3C147.17 41.3 147.37 41.9 147.37 41.9H148.17ZM148.27 51.7L148.57 50V49.4V49.6H148.67V49V48.2V47.6V46.4V46V45.8V45.6V45.4V45.2V45V44.8V44.1L148.57 43.9V43.3L148.47 42.9V42.5C148.37 42.5 148.17 41.8 148.17 41.8L147.97 41.2V40.6C147.87 40.6 147.67 40 147.67 40L147.27 38.9L146.87 37.8L146.57 37.1L146.27 36.5V36.3L146.07 36.1L145.87 35.6L145.67 35.1V34.9L145.47 34.7V34.5C145.37 34.5 145.27 34.3 145.27 34.3V34.1C145.17 34.1 144.97 33.9 144.97 33.9V33.8L144.57 33.2L144.07 32.6L143.87 32.3L143.57 32L143.37 31.7L143.17 31.5L142.97 31.3L142.77 31L142.47 30.7L142.27 30.4L142.07 30.2L141.87 29.9L141.37 29.3L140.87 28.7V28.6H140.67C140.67 28.5 140.57 28.3 140.57 28.3V28.2L140.17 27.9L139.87 27.6L139.57 27.4L139.27 27.1L139.07 26.9L138.87 26.7L138.47 26.4L138.07 26.2H137.87C137.87 26.1 137.77 25.9 137.77 25.9V25.7L137.57 25.6L137.27 25.4L136.97 25.2L136.07 24.5L134.07 23.3L133.07 22.7L131.57 22L130.07 21.4L129.17 21.1L127.37 20.7H126.47C126.47 20.6 125.37 20.3 125.37 20.3H122.07C122.07 20.4 122.17 20.3 122.17 20.3C122.17 20.2 122.07 20.1 122.07 20.1H121.57L120.97 20.2L119.77 20.4L119.17 20.6H126.17C126.17 20.7 126.77 20.9 126.77 20.9L127.37 21.1L127.97 21.3H128.47C128.47 21.4 128.97 21.7 128.97 21.7L129.27 21.9H129.57C129.57 22 130.27 22.3 130.27 22.3L130.97 22.6L131.37 22.8L131.77 23L132.37 23.3L132.97 23.6L133.17 23.8H133.37C133.37 23.9 133.87 24.2 133.87 24.2L134.37 24.5L134.67 24.7L134.97 24.9L135.67 25.4L136.27 25.9H136.47C136.47 26 136.67 26.2 136.67 26.2L137.37 26.8L138.07 27.4L138.47 27.8L138.87 28.2L139.27 28.5L139.67 28.9H139.77C139.77 29 139.97 29.2 139.97 29.2L140.47 29.7L140.97 30.2V30.6C141.07 30.6 141.27 30.8 141.27 30.8H141.37V31L141.67 31.4L141.97 31.8L142.17 32L142.37 32.2L142.87 32.9L143.37 33.6L143.87 34.4L144.37 35.2V35.3V35.1H144.27L144.47 35.4V35.7C144.57 35.7 145.47 37.4 145.47 37.4L146.27 39.1V39.4C146.37 39.4 146.37 39.5 146.37 39.5V39.7L146.57 39.9L146.97 40.8L147.27 41.7V42.2C147.37 42.2 147.57 42.7 147.57 42.7L147.77 43.7L147.97 44.6L148.17 45.5L148.37 46.4L148.57 47.4L148.77 48.4V48.7L148.87 49.1V50.1C148.97 50.1 149.17 51.5 149.17 51.5L149.37 52.1H149.47L149.67 51.9L148.27 51.7Z" fill="url(#paint3_linear_10_343)"/>
<path d="M51.4 87.7V87.4C51.5 87.4 51.9 85.7 51.9 85.7L52.3 84V83.1L52.5 81.5L52.7 80.3V77.9C52.8 77.9 52.7 76.7 52.7 76.7V74.3L52.5 72.4L51.9 68.8L51.4 67V66.7L51.2 66.6V65.9L51.3 65.5L51.1 64.7L50.9 64.3V63.9C50.8 63.9 50.7 63.8 50.7 63.8V63.7V63.4L50.5 63.1H50.3C50.3 63 50.2 62.9 50.2 62.9L50 62.5V62.3L49 59.6L48 56.9L47.1 54.7L45.1 50.2L44.2 48.3L42.1 44.5L40.9 42.6L39.4 40.7L38.7 39.8V39.6H38.8C38.8 39.5 38.3 38.8 38.3 38.8L37.9 38.1V37.7C37.9 37.6 38 37.5 38 37.5V37.3V37.1C37.9 37.1 37.7 36.7 37.7 36.7C37.7 36.6 37.9 36.7 37.9 36.7L38.3 37.1L38.9 38.1L39.3 38.6L40 39.5L41.2 41L41.8 42.1L42 42.7V42.9L42.2 43.1L42.6 43.5L43.1 44.3L43.7 45.5L44.1 46.3L44.3 46.5L44.6 47L44.8 47.8L45.1 48.3L45.6 49.1L46.3 50.7L46.9 52.3L47.6 53.9L48.1 54.7L48.4 55.4L48.8 56.8L49.2 57.6L49.6 58.3L49.9 59.5V61L50 61.3H50.1C50.1 61.4 50.2 61.5 50.2 61.5L50.4 61.3V60.4C50.3 60.4 50.2 60.2 50.2 60.2V59.8V60.1C50.3 60.1 50.7 61.1 50.7 61.1L51.4 63L52.2 65.9L52.6 67.7V68.1C52.7 68.1 52.9 68.4 52.9 68.4H53.1V67.5C53 67.5 53.1 67.1 53.1 67.1V66.9H53.3L53.6 68.5L53.9 69.8V70L54.1 70.2V69.7C54.2 69.7 54.1 68.6 54.1 68.6L53.9 67.2V66.3C53.8 66.3 53.8 65.9 53.8 65.9V65C53.7 65 53.7 64.8 53.7 64.8L53.5 64.6L53.1 64.3L52.8 64L52.6 63.7L52.3 62.9V62.4C52.2 62.4 51.2 59.2 51.2 59.2L48.7 52.7L46.5 47.9L44.8 44.8L43 41.8L41.1 38.9L40.1 37.6H40.2C40.2 37.5 40.3 37.4 40.3 37.4L39 35.5L37.7 33.6V33.4C37.6 33.4 37.6 33.1 37.6 33.1H37.8C37.8 33 38 33.1 38 33.1H38.1C38.1 33.2 38.7 34 38.7 34L39.3 34.8V35.1C39.4 35.1 39.5 35.4 39.5 35.4V35.7L39.9 35.9L40.2 36.2L40.7 36.8L40.8 36.9V36.5L39.5 34.5L38.1 32.6V32.4L38.9 33.2L40.3 35.2L40.5 35.5L40.9 36L41.2 36.2H41.4C41.4 36.3 41.8 36.8 41.8 36.8L42 37.1L42.8 38L44.4 40.6L47.3 46.1L48.6 48.9V49.1L48.8 49.4L48.6 49.2L48.3 48.7L48 47.9L47.8 47.4L47.5 47.1H47.4V47.3L48 48.5L49.2 51.1L49.8 52.6L52.2 58.3V58.5H52.4V58.2L52.1 57.5L51.8 56.9L50.7 54.1L50.3 52.9V52.6L50.7 53V53.3L50.9 53.9L51.5 55.2L52.1 56.6L52.6 57.9V58.4L52.7 58.8V59.4L52.9 60.3L53.2 60.7H53.8V59.9L53.6 59L53.3 58.1V57.8L52.1 54.6L51.1 52.1L50.9 51.2L50.6 50C50.6 49.9 50.5 49.1 50.5 49.1L49.9 47.3L47.7 42.1L45.3 37.7L43.5 34.6L40.6 30.3L38.5 27.6L38.3 27.3H38.2L38 27.6L34 35.1L30 42.6V43H30.1C30.1 43.1 31.3 44.6 31.3 44.6L32.6 46.3L32.9 46.7L33.1 47L33.6 47.8L34.3 48.9L35.1 50.2L35.4 50.6L35.7 50.8H35.9V49.8C35.8 49.8 35.5 49.2 35.5 49.2V49L36.4 50.3L37.2 51.4L37.8 52L38.7 53.2L39 53.8V54.2H38.8L38.7 54.1L38.3 53.4V53.2H38.1V53.7L38.4 54.3L38.8 54.9L40 57.2L40.5 58.5L41.4 60.7L41.7 61.9L41.4 61.4L41 60.4L40 58.3L39 56.2V56C38.9 56 38.6 55.6 38.6 55.6H38.4V55.8L38.5 56.2V56.4L38.9 56.9L39.4 58.3L39.7 58.9V59.2C39.8 59.2 39.8 59.3 39.8 59.3C39.8 59.4 39.6 59.3 39.6 59.3H39.4C39.4 59.2 39.9 60.4 39.9 60.4V60.2H40.3L40.5 60.6L40.7 61V61.5C40.8 61.5 40.7 61.9 40.7 61.9H40.6L40.5 61.7V61.4C40.4 61.4 40.2 61.1 40.2 61.1L40.8 62.8L42 66.3L43.4 71.6L44.2 75V75.2H44.3V74.9C44.3 74.8 44 72.7 44 72.7L42.9 68.5L42.3 66.4V66.1H42.5L42.7 66.5C42.7 66.6 43.5 69.1 43.5 69.1L44.6 72.8L45.1 75.3V76.1L45.3 76.6C45.3 76.7 45.4 76.8 45.4 76.8V76.3C45.5 76.3 45.6 75.4 45.6 75.4V74.8L45.9 74V72.4L45.7 71.5V71H45.8V71.2L46.1 73.9V74.2H46.3V72.7V72.4H46.4V71.2L46.8 71.8L47.2 73.1V74.6L47.4 75.5V76.5L47.5 77.8V79.6V79.9C47.5 79.8 47.5 80 47.5 80V81L47.6 80.9V79.7V79.4H47.7V79.7H47.9V75.3C47.8 75.3 47.7 74.9 47.7 74.9V74.6H47.9L47.7 72.6L47 68.7L46 64.8L44.8 60.9L43.3 57.1L41.5 53.4L39.6 49.8L37.5 46.3L36.4 44.7H36.7L37.1 45V45.2C37.2 45.2 38.8 47.5 38.8 47.5L41.5 52.4L43.8 57.5L45.8 62.7L46.7 65.3V65.7C46.8 65.7 47 66.3 47 66.3C47 66.4 47.1 66.6 47.1 66.6H47.2L47.4 66.7L47.8 66.9L48 67.2V67.6L48.2 67.8H48.3V67C48.2 67 47.7 65.6 47.7 65.6L47.5 64.9L47.2 64.2L46.6 62.8L46.4 62.1V61.6L46.2 60.9L46 60.4L45.8 60.2L45.4 59.3L44.8 57.6L44.6 56.8V56.4L44.3 55.7L43.7 54.8L43.3 54.3L43.1 54V53.3C43 53.3 42.8 52.8 42.8 52.8L42.4 51.7L41.2 49.4L40.5 48.3L39.6 46.6L39.3 46.2L38.7 45.8L38.4 45.4V45.2L38.3 45L38.1 44.6L37.7 44.1L37.3 43.8H36.5V43.6C36.4 43.6 36 43.2 36 43.2L35.7 42.9L35.3 42.6H34.8L34.5 42.9H34L33.7 42.7H33.6L33.5 42.4V42.2C33.6 42.2 33.9 42.1 33.9 42.1H34.2C34.2 42 34.5 41.9 34.5 41.9H35.1C35.1 42 35.3 42.3 35.3 42.3L35.7 42.7L35.8 42.8H36C36 42.9 36.1 43 36.1 43V42.8C36.2 42.8 36.2 42.1 36.2 42.1H36.3V42L36.7 42.3H36.8V42H37L37.1 42.2L38.5 44.3L39.9 46.5L42.4 51L43.5 53.3L45.5 58L46.3 60.4L47 62.3L48.2 66.4L48.6 68.4L49.4 72.4L49.6 74.5V76.3V76.7C49.5 76.7 49.6 77 49.6 77V77.4C49.7 77.4 49.8 77.8 49.8 77.8V81L49.7 82.3V82.6L49.5 82.8V84.2L49.3 85.7V86.3C49.2 86.3 49.1 86.9 49.1 86.9V88C49 88 48.9 88.4 48.9 88.4L48.7 88.8V89L48.9 88.8H49.1L51.4 87.7ZM40.97 34.8L40.17 34L39.37 32.8L38.77 32L38.17 31.2H38.07V30.9H38.27L38.57 31.1L39.17 32L40.07 33.4L41.17 34.8H40.97ZM50.57 50.6L48.67 46.9L45.87 41.1L43.87 37.4L42.77 35.7V35.3L43.37 36L44.27 37.4V37.6C44.37 37.6 44.77 37.9 44.77 37.9H44.97L45.17 38.2L45.87 39.5L46.27 40.4L49.07 46.5L50.37 49.6L50.67 50.4V50.6H50.57ZM37.07 39.6H36.87L36.57 39.2L36.37 38.8V38.3H36.77L37.07 38.5V39L37.27 39.4V39.6H37.07ZM33.57 42.5L33.47 42.3L33.27 42C33.27 41.9 33.47 41.9 33.47 41.9L33.57 41.7L33.87 41.5H34.17L34.37 41.7L34.67 42.2V42.4H34.27C34.27 42.3 33.97 42.4 33.97 42.4V42.6H33.77L33.57 42.5ZM41.37 57.4V57.2C41.27 57.2 41.17 56.9 41.17 56.9L40.27 55L39.27 53.1L37.87 50.6L35.67 46.9L34.77 45.6L33.77 44.2L33.17 43.4H32.97V43.9L32.77 43.5V42.6H32.87L33.47 43L34.07 43.8L35.27 45.5L35.87 46.4L37.57 49.3L39.27 52.3L40.87 55.3L41.87 56.7L42.07 56.9C42.07 57 41.97 57.3 41.97 57.3H41.37V57.4Z" fill="#ED7138"/>
<path fill-rule="evenodd" clip-rule="evenodd" d="M46.87 85.8C47.27 86 47.47 86.4 47.27 86.9C47.07 87.3 46.67 87.5 46.27 87.3C45.27 87 45.87 85.6 46.87 85.8Z" fill="#ED7138"/>
</g>
<defs>
<linearGradient id="paint0_linear_10_343" x1="52.57" y1="63.8" x2="74.77" y2="63.8" gradientUnits="userSpaceOnUse">
<stop stop-color="#7E3B19"/>
<stop offset="1" stop-color="#DD7847"/>
</linearGradient>
<linearGradient id="paint1_linear_10_343" x1="83.28" y1="16.44" x2="62.38" y2="1.54001" gradientUnits="userSpaceOnUse">
<stop offset="0.2" stop-color="#F4793B"/>
<stop offset="1" stop-color="#87280B"/>
</linearGradient>
<linearGradient id="paint2_linear_10_343" x1="125.64" y1="13.1" x2="152.44" y2="30.5" gradientUnits="userSpaceOnUse">
<stop offset="0.1" stop-color="#88360B"/>
<stop offset="1" stop-color="#F4793B"/>
</linearGradient>
<linearGradient id="paint3_linear_10_343" x1="114.95" y1="23.34" x2="139.15" y2="35.84" gradientUnits="userSpaceOnUse">
<stop stop-color="#88360B"/>
<stop offset="1" stop-color="#F4793B"/>
</linearGradient>
<clipPath id="clip0_10_343">
<rect width="190" height="254.9" fill="white"/>
</clipPath>
</defs>
</svg>
